<svg baseProfile="full" height="100%" version="1.1" viewBox="25.0,5.0,485.0,700.0" width="100%" xmlns="http://www.w3.org/2000/svg" xmlns:ev="http://www.w3.org/2001/xml-events" xmlns:xlink="http://www.w3.org/1999/xlink"><defs /><g><line stroke="lightgrey" stroke-dasharray="2" x1="250.0" x2="249.0" y1="15.0" y2="15.0" /><line stroke="lightgrey" stroke-dasharray="2" x1="250.0" x2="249.0" y1="35.0" y2="35.0" /><line stroke="lightgrey" stroke-dasharray="2" x1="230.0" x2="249.0" y1="55.0" y2="55.0" /><line stroke="lightgrey" stroke-dasharray="2" x1="210.0" x2="249.0" y1="75.0" y2="75.0" /><line stroke="lightgrey" stroke-dasharray="2" x1="190.0" x2="249.0" y1="95.0" y2="95.0" /><line stroke="lightgrey" stroke-dasharray="2" x1="170.0" x2="249.0" y1="115.0" y2="115.0" /><line stroke="lightgrey" stroke-dasharray="2" x1="150.0" x2="249.0" y1="135.0" y2="135.0" /><line stroke="lightgrey" stroke-dasharray="2" x1="130.0" x2="249.0" y1="155.0" y2="155.0" /><line stroke="lightgrey" stroke-dasharray="2" x1="110.0" x2="249.0" y1="175.0" y2="175.0" /><line stroke="lightgrey" stroke-dasharray="2" x1="90.0" x2="249.0" y1="195.0" y2="195.0" /><line stroke="lightgrey" stroke-dasharray="2" x1="70.0" x2="249.0" y1="215.0" y2="215.0" /><line stroke="lightgrey" stroke-dasharray="2" x1="50.0" x2="249.0" y1="235.0" y2="235.0" /><line stroke="lightgrey" stroke-dasharray="2" x1="190.0" x2="249.0" y1="255.0" y2="255.0" /><line stroke="lightgrey" stroke-dasharray="2" x1="230.0" x2="249.0" y1="275.0" y2="275.0" /><line stroke="lightgrey" stroke-dasharray="2" x1="210.0" x2="249.0" y1="295.0" y2="295.0" /><line stroke="lightgrey" stroke-dasharray="2" x1="170.0" x2="249.0" y1="315.0" y2="315.0" /><line stroke="lightgrey" stroke-dasharray="2" x1="150.0" x2="249.0" y1="335.0" y2="335.0" /><line stroke="lightgrey" stroke-dasharray="2" x1="70.0" x2="249.0" y1="355.0" y2="355.0" /><line stroke="lightgrey" stroke-dasharray="2" x1="50.0" x2="249.0" y1="375.0" y2="375.0" /><line stroke="lightgrey" stroke-dasharray="2" x1="190.0" x2="249.0" y1="395.0" y2="395.0" /><line stroke="lightgrey" stroke-dasharray="2" x1="230.0" x2="249.0" y1="415.0" y2="415.0" /><line stroke="lightgrey" stroke-dasharray="2" x1="210.0" x2="249.0" y1="435.0" y2="435.0" /><line stroke="lightgrey" stroke-dasharray="2" x1="170.0" x2="249.0" y1="455.0" y2="455.0" /><line stroke="lightgrey" stroke-dasharray="2" x1="150.0" x2="249.0" y1="475.0" y2="475.0" /><line stroke="lightgrey" stroke-dasharray="2" x1="230.0" x2="249.0" y1="495.0" y2="495.0" /><line stroke="lightgrey" stroke-dasharray="2" x1="210.0" x2="249.0" y1="515.0" y2="515.0" /><line stroke="lightgrey" stroke-dasharray="2" x1="150.0" x2="249.0" y1="535.0" y2="535.0" /><line stroke="lightgrey" stroke-dasharray="2" x1="230.0" x2="249.0" y1="555.0" y2="555.0" /><line stroke="lightgrey" stroke-dasharray="2" x1="210.0" x2="249.0" y1="575.0" y2="575.0" /><line stroke="lightgrey" stroke-dasharray="2" x1="150.0" x2="249.0" y1="595.0" y2="595.0" /><line stroke="lightgrey" stroke-dasharray="2" x1="230.0" x2="229.0" y1="615.0" y2="615.0" /><line stroke="lightgrey" stroke-dasharray="2" x1="170.0" x2="229.0" y1="635.0" y2="635.0" /><line stroke="lightgrey" stroke-dasharray="2" x1="150.0" x2="229.0" y1="655.0" y2="655.0" /><line stroke="lightgrey" stroke-dasharray="2" x1="230.0" x2="229.0" y1="675.0" y2="675.0" /><line stroke="lightgrey" stroke-dasharray="2" x1="170.0" x2="169.0" y1="695.0" y2="695.0" /></g><g><line stroke="#5353c6" stroke-width="2.0" x1="175.0" x2="175.0" y1="95.0" y2="255.0" /><line stroke="#53c653" stroke-width="2.0" x1="215.0" x2="215.0" y1="55.0" y2="275.0" /><line stroke="#c65353" stroke-width="2.0" x1="135.0" x2="135.0" y1="135.0" y2="280.0" /><line stroke="#53c6c6" stroke-width="2.0" x1="195.0" x2="195.0" y1="75.0" y2="295.0" /><line stroke="#c653c6" stroke-width="2.0" x1="155.0" x2="155.0" y1="115.0" y2="315.0" /><line stroke="#8cd9d9" stroke-width="2.0" x1="55.0" x2="55.0" y1="215.0" y2="355.0" /><line stroke="#8c8cd9" stroke-width="2.0" x1="35.0" x2="35.0" y1="235.0" y2="375.0" /><line stroke="#d98cd9" stroke-width="2.0" x1="175.0" x2="175.0" y1="255.0" y2="395.0" /><line stroke="#d98c8c" stroke-width="2.0" x1="215.0" x2="215.0" y1="275.0" y2="415.0" /><line stroke="#993333" stroke-width="2.0" x1="195.0" x2="195.0" y1="295.0" y2="435.0" /><line stroke="#999933" stroke-width="2.0" x1="155.0" x2="155.0" y1="315.0" y2="455.0" /><line stroke="#339933" stroke-width="2.0" x1="135.0" x2="135.0" y1="335.0" y2="475.0" /><line stroke="#993333" stroke-width="2.0" x1="215.0" x2="215.0" y1="415.0" y2="495.0" /><line stroke="#c65353" stroke-width="2.0" x1="195.0" x2="195.0" y1="435.0" y2="515.0" /><line stroke="#53c653" stroke-width="2.0" x1="135.0" x2="135.0" y1="475.0" y2="535.0" /><line stroke="#d98c8c" stroke-width="2.0" x1="115.0" x2="115.0" y1="155.0" y2="540.0" /><line stroke="#53c6c6" stroke-width="2.0" x1="215.0" x2="215.0" y1="495.0" y2="555.0" /><line stroke="#5353c6" stroke-width="2.0" x1="195.0" x2="195.0" y1="515.0" y2="575.0" /><line stroke="#c653c6" stroke-width="2.0" x1="135.0" x2="135.0" y1="535.0" y2="595.0" /><line stroke="#c6c653" stroke-width="2.0" x1="235.0" x2="235.0" y1="35.0" y2="580.0" /><line stroke="#d9d98c" stroke-width="2.0" x1="95.0" x2="95.0" y1="175.0" y2="600.0" /><line stroke="#c65353" stroke-width="2.0" x1="215.0" x2="215.0" y1="555.0" y2="615.0" /><line stroke="#c6c653" stroke-width="2.0" x1="155.0" x2="155.0" y1="455.0" y2="635.0" /><line stroke="#d98c8c" stroke-width="2.0" x1="195.0" x2="195.0" y1="575.0" y2="620.0" /><line stroke="#d9d98c" stroke-width="2.0" x1="135.0" x2="135.0" y1="595.0" y2="655.0" /><line stroke="#8cd98c" stroke-width="2.0" x1="75.0" x2="75.0" y1="195.0" y2="660.0" /><line stroke="#8cd98c" stroke-width="2.0" x1="215.0" x2="215.0" y1="615.0" y2="675.0" /><line stroke="#8cd9d9" stroke-width="2.0" x1="155.0" x2="155.0" y1="635.0" y2="695.0" /></g><g><line stroke="white" stroke-width="6.0" x1="150.0" x2="215.0" y1="275.0" y2="275.0" /><line stroke="white" stroke-width="6.0" x1="150.0" x2="195.0" y1="295.0" y2="295.0" /><line stroke="white" stroke-width="6.0" x1="130.0" x2="155.0" y1="315.0" y2="315.0" /><line stroke="white" stroke-width="6.0" x1="90.0" x2="135.0" y1="335.0" y2="335.0" /><line stroke="white" stroke-width="6.0" x1="130.0" x2="215.0" y1="415.0" y2="415.0" /><line stroke="white" stroke-width="6.0" x1="130.0" x2="195.0" y1="435.0" y2="435.0" /><line stroke="white" stroke-width="6.0" x1="130.0" x2="155.0" y1="455.0" y2="455.0" /><line stroke="white" stroke-width="6.0" x1="155.0" x2="220.0" y1="455.0" y2="455.0" /><line stroke="white" stroke-width="6.0" x1="90.0" x2="135.0" y1="475.0" y2="475.0" /><line stroke="white" stroke-width="6.0" x1="130.0" x2="215.0" y1="495.0" y2="495.0" /><line stroke="white" stroke-width="6.0" x1="110.0" x2="195.0" y1="515.0" y2="515.0" /><line stroke="white" stroke-width="6.0" x1="90.0" x2="135.0" y1="535.0" y2="535.0" /><line stroke="white" stroke-width="6.0" x1="130.0" x2="215.0" y1="555.0" y2="555.0" /><line stroke="white" stroke-width="6.0" x1="90.0" x2="135.0" y1="595.0" y2="595.0" /><line stroke="white" stroke-width="6.0" x1="135.0" x2="220.0" y1="595.0" y2="595.0" /><line stroke="white" stroke-width="6.0" x1="110.0" x2="215.0" y1="615.0" y2="615.0" /><line stroke="white" stroke-width="6.0" x1="155.0" x2="180.0" y1="635.0" y2="635.0" /><line stroke="white" stroke-width="6.0" x1="90.0" x2="135.0" y1="655.0" y2="655.0" /><line stroke="white" stroke-width="6.0" x1="90.0" x2="215.0" y1="675.0" y2="675.0" /></g><g><path d="M 135.0,260.0 a15.0,15.0 0 0,0 15.0,15.0" fill="none" stroke="#c65353" stroke-width="2.0" /><line stroke="#c65353" stroke-width="2.0" x1="150.0" x2="215.0" y1="275.0" y2="275.0" /><path d="M 135.0,280.0 a15.0,15.0 0 0,0 15.0,15.0" fill="none" stroke="#c65353" stroke-width="2.0" /><line stroke="#c65353" stroke-width="2.0" x1="150.0" x2="195.0" y1="295.0" y2="295.0" /><path d="M 115.0,300.0 a15.0,15.0 0 0,0 15.0,15.0" fill="none" stroke="#d98c8c" stroke-width="2.0" /><line stroke="#d98c8c" stroke-width="2.0" x1="130.0" x2="155.0" y1="315.0" y2="315.0" /><path d="M 75.0,320.0 a15.0,15.0 0 0,0 15.0,15.0" fill="none" stroke="#8cd98c" stroke-width="2.0" /><line stroke="#8cd98c" stroke-width="2.0" x1="90.0" x2="135.0" y1="335.0" y2="335.0" /><path d="M 115.0,400.0 a15.0,15.0 0 0,0 15.0,15.0" fill="none" stroke="#d98c8c" stroke-width="2.0" /><line stroke="#d98c8c" stroke-width="2.0" x1="130.0" x2="215.0" y1="415.0" y2="415.0" /><path d="M 115.0,420.0 a15.0,15.0 0 0,0 15.0,15.0" fill="none" stroke="#d98c8c" stroke-width="2.0" /><line stroke="#d98c8c" stroke-width="2.0" x1="130.0" x2="195.0" y1="435.0" y2="435.0" /><path d="M 115.0,440.0 a15.0,15.0 0 0,0 15.0,15.0" fill="none" stroke="#d98c8c" stroke-width="2.0" /><line stroke="#d98c8c" stroke-width="2.0" x1="130.0" x2="155.0" y1="455.0" y2="455.0" /><path d="M 235.0,440.0 a15.0,15.0 0 0,1 -15.0,15.0" fill="none" stroke="#c6c653" stroke-width="2.0" /><line stroke="#c6c653" stroke-width="2.0" x1="155.0" x2="220.0" y1="455.0" y2="455.0" /><path d="M 75.0,460.0 a15.0,15.0 0 0,0 15.0,15.0" fill="none" stroke="#8cd98c" stroke-width="2.0" /><line stroke="#8cd98c" stroke-width="2.0" x1="90.0" x2="135.0" y1="475.0" y2="475.0" /><path d="M 115.0,480.0 a15.0,15.0 0 0,0 15.0,15.0" fill="none" stroke="#d98c8c" stroke-width="2.0" /><line stroke="#d98c8c" stroke-width="2.0" x1="130.0" x2="215.0" y1="495.0" y2="495.0" /><path d="M 95.0,500.0 a15.0,15.0 0 0,0 15.0,15.0" fill="none" stroke="#d9d98c" stroke-width="2.0" /><line stroke="#d9d98c" stroke-width="2.0" x1="110.0" x2="195.0" y1="515.0" y2="515.0" /><path d="M 75.0,520.0 a15.0,15.0 0 0,0 15.0,15.0" fill="none" stroke="#8cd98c" stroke-width="2.0" /><line stroke="#8cd98c" stroke-width="2.0" x1="90.0" x2="135.0" y1="535.0" y2="535.0" /><path d="M 115.0,540.0 a15.0,15.0 0 0,0 15.0,15.0" fill="none" stroke="#d98c8c" stroke-width="2.0" /><line stroke="#d98c8c" stroke-width="2.0" x1="130.0" x2="215.0" y1="555.0" y2="555.0" /><path d="M 75.0,580.0 a15.0,15.0 0 0,0 15.0,15.0" fill="none" stroke="#8cd98c" stroke-width="2.0" /><line stroke="#8cd98c" stroke-width="2.0" x1="90.0" x2="135.0" y1="595.0" y2="595.0" /><path d="M 235.0,580.0 a15.0,15.0 0 0,1 -15.0,15.0" fill="none" stroke="#c6c653" stroke-width="2.0" /><line stroke="#c6c653" stroke-width="2.0" x1="135.0" x2="220.0" y1="595.0" y2="595.0" /><path d="M 95.0,600.0 a15.0,15.0 0 0,0 15.0,15.0" fill="none" stroke="#d9d98c" stroke-width="2.0" /><line stroke="#d9d98c" stroke-width="2.0" x1="110.0" x2="215.0" y1="615.0" y2="615.0" /><path d="M 195.0,620.0 a15.0,15.0 0 0,1 -15.0,15.0" fill="none" stroke="#d98c8c" stroke-width="2.0" /><line stroke="#d98c8c" stroke-width="2.0" x1="155.0" x2="180.0" y1="635.0" y2="635.0" /><path d="M 75.0,640.0 a15.0,15.0 0 0,0 15.0,15.0" fill="none" stroke="#8cd98c" stroke-width="2.0" /><line stroke="#8cd98c" stroke-width="2.0" x1="90.0" x2="135.0" y1="655.0" y2="655.0" /><path d="M 75.0,660.0 a15.0,15.0 0 0,0 15.0,15.0" fill="none" stroke="#8cd98c" stroke-width="2.0" /><line stroke="#8cd98c" stroke-width="2.0" x1="90.0" x2="215.0" y1="675.0" y2="675.0" /></g><g><circle cx="235.0" cy="15.0" fill="#c65353" id="NInputcontigs" r="6.0" stroke="white" stroke-width="2.0" /><text dominant-baseline="middle" font-family="sans-serif" font-size="inherit" x="255.0" y="15.0">Input: contigs</text><circle cx="235.0" cy="35.0" fill="#c6c653" id="NInputfaa" r="6.0" stroke="white" stroke-width="2.0" /><text dominant-baseline="middle" font-family="sans-serif" font-size="inherit" x="255.0" y="35.0">Input: faa</text><circle cx="215.0" cy="55.0" fill="#53c653" id="NGeneratorChannelempty" r="6.0" stroke="white" stroke-width="2.0" /><text dominant-baseline="middle" font-family="sans-serif" font-size="inherit" x="255.0" y="55.0">Generator: Channel.empty()</text><circle cx="195.0" cy="75.0" fill="#53c6c6" id="NGeneratorChannelempty" r="6.0" stroke="white" stroke-width="2.0" /><text dominant-baseline="middle" font-family="sans-serif" font-size="inherit" x="255.0" y="75.0">Generator: Channel.empty()</text><circle cx="175.0" cy="95.0" fill="#5353c6" id="NGeneratorChannelempty" r="6.0" stroke="white" stroke-width="2.0" /><text dominant-baseline="middle" font-family="sans-serif" font-size="inherit" x="255.0" y="95.0">Generator: Channel.empty()</text><circle cx="155.0" cy="115.0" fill="#c653c6" id="NGeneratorChannelempty" r="6.0" stroke="white" stroke-width="2.0" /><text dominant-baseline="middle" font-family="sans-serif" font-size="inherit" x="255.0" y="115.0">Generator: Channel.empty()</text><circle cx="135.0" cy="135.0" fill="#c65353" id="NConditionalparamsamp_skip_amplify" r="6.0" stroke="white" stroke-width="2.0" /><text dominant-baseline="middle" font-family="sans-serif" font-size="inherit" x="255.0" y="135.0">Conditional: params.amp_skip_amplify</text><circle cx="115.0" cy="155.0" fill="#d98c8c" id="NConditionalparamsamp_skip_macrel" r="6.0" stroke="white" stroke-width="2.0" /><text dominant-baseline="middle" font-family="sans-serif" font-size="inherit" x="255.0" y="155.0">Conditional: params.amp_skip_macrel</text><circle cx="95.0" cy="175.0" fill="#d9d98c" id="NConditionalparamsamp_skip_ampir" r="6.0" stroke="white" stroke-width="2.0" /><text dominant-baseline="middle" font-family="sans-serif" font-size="inherit" x="255.0" y="175.0">Conditional: params.amp_skip_ampir</text><circle cx="75.0" cy="195.0" fill="#8cd98c" id="NConditionalparamsamp_skip_hmmsearch" r="6.0" stroke="white" stroke-width="2.0" /><text dominant-baseline="middle" font-family="sans-serif" font-size="inherit" x="255.0" y="195.0">Conditional: params.amp_skip_hmmsearch</text><circle cx="55.0" cy="215.0" fill="#8cd9d9" id="NConditionalparamsamp_ampcombi_db" r="6.0" stroke="white" stroke-width="2.0" /><text dominant-baseline="middle" font-family="sans-serif" font-size="inherit" x="255.0" y="215.0">Conditional: params.amp_ampcombi_db</text><circle cx="35.0" cy="235.0" fill="#8c8cd9" id="NGeneratorChannelofidampcombi_complete_summary" r="6.0" stroke="white" stroke-width="2.0" /><text dominant-baseline="middle" font-family="sans-serif" font-size="inherit" x="255.0" y="235.0">Generator: Channel.of([id:ampcombi_complete_summary])</text><circle cx="175.0" cy="255.0" fill="#d98cd9" id="NOperatormix" r="6.0" stroke="white" stroke-width="2.0" /><text dominant-baseline="middle" font-family="sans-serif" font-size="inherit" x="255.0" y="255.0">Operator: mix</text><circle cx="215.0" cy="275.0" fill="#d98c8c" id="NOperatormix" r="6.0" stroke="white" stroke-width="2.0" /><text dominant-baseline="middle" font-family="sans-serif" font-size="inherit" x="255.0" y="275.0">Operator: mix</text><circle cx="195.0" cy="295.0" fill="#993333" id="NOperatormix" r="6.0" stroke="white" stroke-width="2.0" /><text dominant-baseline="middle" font-family="sans-serif" font-size="inherit" x="255.0" y="295.0">Operator: mix</text><circle cx="155.0" cy="315.0" fill="#999933" id="NOperatormix" r="6.0" stroke="white" stroke-width="2.0" /><text dominant-baseline="middle" font-family="sans-serif" font-size="inherit" x="255.0" y="315.0">Operator: mix</text><circle cx="135.0" cy="335.0" fill="#339933" id="NConditionalparamsamp_hmmsearch_models" r="6.0" stroke="white" stroke-width="2.0" /><text dominant-baseline="middle" font-family="sans-serif" font-size="inherit" x="255.0" y="335.0">Conditional: params.amp_hmmsearch_models</text><circle cx="55.0" cy="355.0" fill="#339999" id="NGeneratorChannelfromPathcheckIfExiststrueparamsamp_ampcombi_db" r="6.0" stroke="white" stroke-width="2.0" /><text dominant-baseline="middle" font-family="sans-serif" font-size="inherit" x="255.0" y="355.0">Generator: Channel.fromPath([checkIfExists:true], params.amp_ampcombi_db)</text><circle cx="35.0" cy="375.0" fill="#333399" id="NOperatorcombine" r="6.0" stroke="white" stroke-width="2.0" /><text dominant-baseline="middle" font-family="sans-serif" font-size="inherit" x="255.0" y="375.0">Operator: combine</text><circle cx="175.0" cy="395.0" fill="#993399" id="NOperatormultiMap" r="6.0" stroke="white" stroke-width="2.0" /><text dominant-baseline="middle" font-family="sans-serif" font-size="inherit" x="255.0" y="395.0">Operator: multiMap</text><circle cx="215.0" cy="415.0" fill="#993333" id="NOperatormix" r="6.0" stroke="white" stroke-width="2.0" /><text dominant-baseline="middle" font-family="sans-serif" font-size="inherit" x="255.0" y="415.0">Operator: mix</text><circle cx="195.0" cy="435.0" fill="#c65353" id="NOperatormix" r="6.0" stroke="white" stroke-width="2.0" /><text dominant-baseline="middle" font-family="sans-serif" font-size="inherit" x="255.0" y="435.0">Operator: mix</text><circle cx="155.0" cy="455.0" fill="#c6c653" id="NOperatormix" r="6.0" stroke="white" stroke-width="2.0" /><text dominant-baseline="middle" font-family="sans-serif" font-size="inherit" x="255.0" y="455.0">Operator: mix</text><circle cx="135.0" cy="475.0" fill="#53c653" id="NGeneratorChannelfromPathcheckIfExiststrueparamsamp_hmmsearch_models" r="6.0" stroke="white" stroke-width="2.0" /><text dominant-baseline="middle" font-family="sans-serif" font-size="inherit" x="255.0" y="475.0">Generator: Channel.fromPath([checkIfExists:true], params.amp_hmmsearch_models)</text><circle cx="215.0" cy="495.0" fill="#53c6c6" id="NOperatormix" r="6.0" stroke="white" stroke-width="2.0" /><text dominant-baseline="middle" font-family="sans-serif" font-size="inherit" x="255.0" y="495.0">Operator: mix</text><circle cx="195.0" cy="515.0" fill="#5353c6" id="NOperatormix" r="6.0" stroke="white" stroke-width="2.0" /><text dominant-baseline="middle" font-family="sans-serif" font-size="inherit" x="255.0" y="515.0">Operator: mix</text><circle cx="135.0" cy="535.0" fill="#c653c6" id="NOperatormap" r="6.0" stroke="white" stroke-width="2.0" /><text dominant-baseline="middle" font-family="sans-serif" font-size="inherit" x="255.0" y="535.0">Operator: map</text><circle cx="215.0" cy="555.0" fill="#c65353" id="NOperatormix" r="6.0" stroke="white" stroke-width="2.0" /><text dominant-baseline="middle" font-family="sans-serif" font-size="inherit" x="255.0" y="555.0">Operator: mix</text><circle cx="195.0" cy="575.0" fill="#d98c8c" id="NOperatorgroupTuple" r="6.0" stroke="white" stroke-width="2.0" /><text dominant-baseline="middle" font-family="sans-serif" font-size="inherit" x="255.0" y="575.0">Operator: groupTuple</text><circle cx="135.0" cy="595.0" fill="#d9d98c" id="NOperatorcombine" r="6.0" stroke="white" stroke-width="2.0" /><text dominant-baseline="middle" font-family="sans-serif" font-size="inherit" x="255.0" y="595.0">Operator: combine</text><circle cx="215.0" cy="615.0" fill="#8cd98c" id="NOperatormix" r="6.0" stroke="white" stroke-width="2.0" /><text dominant-baseline="middle" font-family="sans-serif" font-size="inherit" x="235.0" y="615.0">Operator: mix</text><circle cx="155.0" cy="635.0" fill="#8cd9d9" id="NOperatorjoin" r="6.0" stroke="white" stroke-width="2.0" /><text dominant-baseline="middle" font-family="sans-serif" font-size="inherit" x="235.0" y="635.0">Operator: join</text><circle cx="135.0" cy="655.0" fill="#8c8cd9" id="NOperatormap" r="6.0" stroke="white" stroke-width="2.0" /><text dominant-baseline="middle" font-family="sans-serif" font-size="inherit" x="235.0" y="655.0">Operator: map</text><circle cx="215.0" cy="675.0" fill="#d98cd9" id="NOperatormix" r="6.0" stroke="white" stroke-width="2.0" /><text dominant-baseline="middle" font-family="sans-serif" font-size="inherit" x="235.0" y="675.0">Operator: mix</text><circle cx="155.0" cy="695.0" fill="#d98c8c" id="NOperatormultiMap" r="6.0" stroke="white" stroke-width="2.0" /><text dominant-baseline="middle" font-family="sans-serif" font-size="inherit" x="175.0" y="695.0">Operator: multiMap</text></g></svg>