<svg xmlns="http://www.w3.org/2000/svg" viewBox="0 0 346.22 337.46"><defs><style>.cls-1,.cls-10,.cls-11,.cls-12,.cls-13,.cls-14,.cls-15,.cls-16,.cls-17,.cls-18,.cls-19,.cls-20,.cls-21,.cls-22,.cls-23,.cls-24,.cls-3,.cls-4,.cls-6,.cls-7,.cls-8,.cls-9{fill:none;}.cls-1,.cls-10,.cls-11,.cls-12,.cls-13,.cls-14,.cls-15,.cls-16,.cls-17,.cls-18,.cls-19,.cls-2,.cls-20,.cls-21,.cls-22,.cls-23,.cls-24,.cls-3,.cls-4,.cls-6,.cls-7,.cls-8,.cls-9{stroke:#3d4ea1;}.cls-1,.cls-10,.cls-11,.cls-12,.cls-13,.cls-14,.cls-15,.cls-16,.cls-17,.cls-18,.cls-19,.cls-2,.cls-20,.cls-21,.cls-22,.cls-23,.cls-24,.cls-5,.cls-6,.cls-7,.cls-8,.cls-9{stroke-miterlimit:10;}.cls-1,.cls-2,.cls-3,.cls-4{stroke-width:2px;}.cls-2,.cls-5{fill:#6266ae;}.cls-3{stroke-linecap:square;}.cls-3,.cls-4{stroke-linejoin:bevel;}.cls-5{font-size:45px;stroke:#6266ae;font-family:BerlinSansFBDemi-Bold, Berlin Sans FB Demi;font-weight:700;}.cls-10,.cls-11,.cls-12,.cls-13,.cls-14,.cls-15,.cls-16,.cls-17,.cls-18,.cls-19,.cls-20,.cls-21,.cls-22,.cls-23,.cls-24,.cls-6,.cls-7,.cls-8,.cls-9{stroke-linecap:round;stroke-width:3px;}.cls-6{stroke-dasharray:0 11.94;}.cls-7{stroke-dasharray:0 11.97;}.cls-8{stroke-dasharray:0 11.99;}.cls-9{stroke-dasharray:0 22.1;}.cls-10{stroke-dasharray:0 22.14;}.cls-11{stroke-dasharray:0 21.93;}.cls-12{stroke-dasharray:0 31.81;}.cls-13{stroke-dasharray:0 31.81;}.cls-14{stroke-dasharray:0 31.55;}.cls-15{stroke-dasharray:0 31.54;}.cls-16{stroke-dasharray:0 31.97;}.cls-17{stroke-dasharray:0 32.18;}.cls-18{stroke-dasharray:0 32.18;}.cls-19{stroke-dasharray:0 31.86;}.cls-20{stroke-dasharray:0 31.86;}.cls-21{stroke-dasharray:0 32.31;}.cls-22{stroke-dasharray:0 39.58;}.cls-23{stroke-dasharray:0 40.39;}.cls-24{stroke-dasharray:0 11.98;}</style></defs><g id="Layer_2" data-name="Layer 2"><g id="Layer_3" data-name="Layer 3"><polygon class="cls-1" points="104.73 141.43 90.98 117.62 104.73 93.8 132.23 93.8 145.97 117.62 132.23 141.43 104.73 141.43"/><polygon class="cls-2" points="162.11 175.15 148.36 151.33 162.11 127.52 189.61 127.52 203.36 151.33 189.61 175.15 162.11 175.15"/><polygon class="cls-1" points="161.99 120.42 148.24 96.61 161.99 72.8 189.49 72.8 203.24 96.61 189.49 120.42 161.99 120.42"/><polygon class="cls-1" points="207.68 148.53 193.93 124.71 207.68 100.9 235.17 100.9 248.92 124.71 235.17 148.53 207.68 148.53"/><line class="cls-1" x1="151.93" y1="138" x2="141.24" y2="131.32"/><line class="cls-1" x1="156.08" y1="130.31" x2="147.02" y2="145.84"/><line class="cls-1" x1="126.19" y1="88.83" x2="109.42" y2="88.83"/><line class="cls-3" x1="208.39" y1="94.83" x2="201.34" y2="82.83"/><line class="cls-4" x1="223.43" y1="95.17" x2="207.9" y2="95.17"/><line class="cls-3" x1="206.66" y1="153.4" x2="220.43" y2="153.35"/><line class="cls-4" x1="199.01" y1="166.09" x2="206.61" y2="152.81"/><line class="cls-1" x1="117.81" y1="77.71" x2="117.81" y2="88.83"/><circle class="cls-1" cx="118.48" cy="147.81" r="2.69"/><circle class="cls-1" cx="258.14" cy="105.24" r="2.69"/><line class="cls-1" x1="250.79" y1="119.34" x2="242.24" y2="104.91"/><line class="cls-1" x1="256.08" y1="106.46" x2="246.51" y2="112.13"/></g><g id="Layer_4" data-name="Layer 4"><text class="cls-5" transform="translate(61.45 221.43)">FUNCSCAN</text></g><g id="Layer_2-2" data-name="Layer 2"><ellipse class="cls-6" cx="173.11" cy="168.44" rx="171.61" ry="166.73"/><ellipse class="cls-6" cx="173.11" cy="168.44" rx="166.73" ry="171.61" transform="translate(-25.07 306.52) rotate(-79.08)"/><ellipse class="cls-7" cx="172.61" cy="168.11" rx="157.7" ry="166.1" transform="translate(-4.23 331.77) rotate(-87.03)"/><ellipse class="cls-7" cx="173.11" cy="168.44" rx="157.7" ry="166.1" transform="translate(-29.36 300.15) rotate(-77.26)"/><ellipse class="cls-8" cx="172.81" cy="168.95" rx="166.1" ry="162.21" transform="translate(-19.7 22.84) rotate(-7.16)"/><ellipse class="cls-9" cx="172.83" cy="169.46" rx="160.54" ry="155.98"/><ellipse class="cls-9" cx="172.83" cy="169.46" rx="155.98" ry="160.54" transform="translate(-43.86 277.32) rotate(-70.9)"/><ellipse class="cls-10" cx="172.37" cy="169.15" rx="147.53" ry="155.39" transform="translate(-5.5 332.52) rotate(-87.03)"/><ellipse class="cls-10" cx="172.83" cy="169.46" rx="147.53" ry="155.39" transform="translate(-30.57 300.67) rotate(-77.26)"/><ellipse class="cls-11" cx="172.56" cy="169.93" rx="155.39" ry="151.74" transform="translate(-19.82 22.82) rotate(-7.16)"/><ellipse class="cls-12" cx="176.72" cy="167.3" rx="151.17" ry="142.43"/><ellipse class="cls-13" cx="176.72" cy="167.3" rx="142.51" ry="151.09" transform="matrix(0.09, -1, 1, 0.09, -6.13, 327.88)"/><ellipse class="cls-14" cx="176.28" cy="167.02" rx="134.72" ry="146.31" transform="matrix(0.03, -1, 1, 0.03, 3.61, 337.77)"/><ellipse class="cls-15" cx="176.72" cy="167.3" rx="134.84" ry="146.18" transform="translate(-13.61 318.93) rotate(-81.97)"/><ellipse class="cls-16" cx="176.46" cy="167.73" rx="146.29" ry="138.59" transform="translate(-8.86 9.84) rotate(-3.12)"/><ellipse class="cls-17" cx="169.3" cy="167.6" rx="154.29" ry="153.02" transform="translate(-59.27 234.77) rotate(-61.09)"/><ellipse class="cls-18" cx="169.3" cy="167.6" rx="153.24" ry="154.08" transform="translate(-52.06 79.55) rotate(-23.02)"/><ellipse class="cls-19" cx="168.82" cy="167.36" rx="148.53" ry="145.53" transform="translate(-27.49 33.3) rotate(-10.42)"/><ellipse class="cls-20" cx="169.3" cy="171.6" rx="145.47" ry="148.59" transform="matrix(0.25, -0.97, 0.97, 0.25, -39.42, 292.22)"/><ellipse class="cls-21" cx="169.09" cy="168.1" rx="151.1" ry="147.13" transform="translate(-51.9 257.61) rotate(-66.88)"/><ellipse class="cls-22" cx="176.24" cy="168.63" rx="136.12" ry="128.37" transform="translate(-19.63 23.27) rotate(-7.16)"/><ellipse class="cls-23" cx="175" cy="166.61" rx="133.91" ry="136.08" transform="translate(-13.69 317.55) rotate(-82.25)"/><ellipse class="cls-24" cx="173.18" cy="169.17" rx="166.73" ry="168.86" transform="translate(-17.79 317.96) rotate(-82.25)"/></g></g></svg>