<?xml version="1.0" encoding="utf-8"?>
<!-- Generator: Adobe Illustrator 24.1.1, SVG Export Plug-In . SVG Version: 6.00 Build 0)  -->
<svg version="1.1" xmlns="http://www.w3.org/2000/svg" xmlns:xlink="http://www.w3.org/1999/xlink" x="0px" y="0px"
	 viewBox="0 0 410.18 388.36" style="enable-background:new 0 0 410.18 388.36;" xml:space="preserve">
<style type="text/css">
	.st0{fill:none;stroke:#507DA7;stroke-width:2;stroke-miterlimit:10;}
	.st1{fill:#8AA1C1;stroke:#507DA7;stroke-width:2;stroke-miterlimit:10;}
	.st2{fill:none;stroke:#507DA7;stroke-width:2;stroke-linecap:square;stroke-linejoin:bevel;stroke-miterlimit:10;}
	.st3{fill:none;stroke:#507DA7;stroke-width:2;stroke-linejoin:bevel;stroke-miterlimit:10;}
	.st4{fill:none;}
	.st5{fill:#507DA7;stroke:#4C7DB4;stroke-miterlimit:10;}
	.st6{font-family:'BerlinSansFBDemi-Bold';}
	.st7{font-size:45px;}
	.st8{fill:none;stroke:#365A9A;stroke-width:3;stroke-linecap:round;stroke-miterlimit:10;stroke-dasharray:0,11.9441;}
	.st9{fill:none;stroke:#365A9A;stroke-width:3;stroke-linecap:round;stroke-miterlimit:10;stroke-dasharray:0,11.9703;}
	.st10{fill:none;stroke:#365A9A;stroke-width:3;stroke-linecap:round;stroke-miterlimit:10;stroke-dasharray:0,11.9941;}
	.st11{fill:none;stroke:#365A9A;stroke-width:3;stroke-linecap:round;stroke-miterlimit:10;stroke-dasharray:0,22.0991;}
	.st12{fill:none;stroke:#365A9A;stroke-width:3;stroke-linecap:round;stroke-miterlimit:10;stroke-dasharray:0,22.1358;}
	.st13{fill:none;stroke:#365A9A;stroke-width:3;stroke-linecap:round;stroke-miterlimit:10;stroke-dasharray:0,21.9309;}
	.st14{fill:none;stroke:#365A9A;stroke-width:3;stroke-linecap:round;stroke-miterlimit:10;stroke-dasharray:0,31.8142;}
	.st15{fill:none;stroke:#365A9A;stroke-width:3;stroke-linecap:round;stroke-miterlimit:10;stroke-dasharray:0,31.8135;}
	.st16{fill:none;stroke:#365A9A;stroke-width:3;stroke-linecap:round;stroke-miterlimit:10;stroke-dasharray:0,31.5466;}
	.st17{fill:none;stroke:#365A9A;stroke-width:3;stroke-linecap:round;stroke-miterlimit:10;stroke-dasharray:0,31.5449;}
	.st18{fill:none;stroke:#365A9A;stroke-width:3;stroke-linecap:round;stroke-miterlimit:10;stroke-dasharray:0,31.9709;}
	.st19{fill:none;stroke:#365A9A;stroke-width:3;stroke-linecap:round;stroke-miterlimit:10;stroke-dasharray:0,32.1832;}
	.st20{fill:none;stroke:#365A9A;stroke-width:3;stroke-linecap:round;stroke-miterlimit:10;stroke-dasharray:0,32.183;}
	.st21{fill:none;stroke:#365A9A;stroke-width:3;stroke-linecap:round;stroke-miterlimit:10;stroke-dasharray:0,31.8571;}
	.st22{fill:none;stroke:#365A9A;stroke-width:3;stroke-linecap:round;stroke-miterlimit:10;stroke-dasharray:0,31.8573;}
	.st23{fill:none;stroke:#365A9A;stroke-width:3;stroke-linecap:round;stroke-miterlimit:10;stroke-dasharray:0,32.3108;}
	.st24{fill:none;stroke:#365A9A;stroke-width:3;stroke-linecap:round;stroke-miterlimit:10;stroke-dasharray:0,39.5772;}
	.st25{fill:none;stroke:#365A9A;stroke-width:3;stroke-linecap:round;stroke-miterlimit:10;stroke-dasharray:0,40.3925;}
	.st26{fill:none;stroke:#365A9A;stroke-width:3;stroke-linecap:round;stroke-miterlimit:10;stroke-dasharray:0,11.9812;}
</style>
<g id="Layer_1">
</g>
<g id="Layer_3">
	<g>
		<polygon class="st0" points="134.69,167.57 120.94,143.76 134.69,119.94 162.19,119.94 175.94,143.76 162.19,167.57 		"/>
		<polygon class="st1" points="192.07,201.29 178.32,177.47 192.07,153.66 219.57,153.66 233.32,177.47 219.57,201.29 		"/>
		<polygon class="st0" points="191.95,146.57 178.2,122.75 191.95,98.94 219.45,98.94 233.2,122.75 219.45,146.57 		"/>
		<polygon class="st0" points="237.64,174.67 223.89,150.85 237.64,127.04 265.13,127.04 278.88,150.85 265.13,174.67 		"/>
		<g>
			<line class="st0" x1="181.89" y1="164.15" x2="171.2" y2="157.46"/>
			<line class="st0" x1="186.04" y1="156.45" x2="176.98" y2="171.98"/>
		</g>
		<line class="st0" x1="156.15" y1="114.97" x2="139.38" y2="114.97"/>
		<g>
			<line class="st2" x1="238.35" y1="120.97" x2="231.3" y2="108.97"/>
			<line class="st3" x1="253.39" y1="121.31" x2="237.86" y2="121.31"/>
		</g>
		<g>
			<line class="st2" x1="236.62" y1="179.54" x2="250.39" y2="179.49"/>
			<line class="st3" x1="228.97" y1="192.23" x2="236.57" y2="178.95"/>
		</g>
		<line class="st0" x1="147.77" y1="103.85" x2="147.77" y2="114.97"/>
		<circle class="st0" cx="148.44" cy="173.95" r="2.69"/>
		<circle class="st0" cx="288.1" cy="131.38" r="2.69"/>
		<g>
			<line class="st0" x1="280.75" y1="145.48" x2="272.2" y2="131.05"/>
			<line class="st0" x1="286.04" y1="132.6" x2="276.48" y2="138.27"/>
		</g>
	</g>
</g>
<g id="Layer_4">
	<rect x="91.41" y="215.85" class="st4" width="248.68" height="60.29"/>
	<text transform="matrix(1 0 0 1 91.4079 247.5735)" class="st5 st6 st7">FUNCSCAN</text>
</g>
<g id="Layer_2">
	<g>
		<g>
			<ellipse class="st8" cx="203.07" cy="194.58" rx="171.61" ry="166.73"/>
		</g>
		<g>
			
				<ellipse transform="matrix(0.1894 -0.9819 0.9819 0.1894 -26.4514 357.1277)" class="st8" cx="203.07" cy="194.58" rx="166.73" ry="171.61"/>
		</g>
	</g>
	<g>
		
			<ellipse transform="matrix(0.0518 -0.9987 0.9987 0.0518 -1.9251 386.4795)" class="st9" cx="202.57" cy="194.25" rx="157.7" ry="166.1"/>
	</g>
	<g>
		
			<ellipse transform="matrix(0.2205 -0.9754 0.9754 0.2205 -31.5053 349.7452)" class="st9" cx="203.07" cy="194.58" rx="157.7" ry="166.1"/>
	</g>
	<g>
		
			<ellipse transform="matrix(0.9922 -0.1246 0.1246 0.9922 -22.7221 26.7786)" class="st10" cx="202.77" cy="195.09" rx="166.1" ry="162.21"/>
	</g>
	<g>
		<ellipse class="st11" cx="202.79" cy="195.6" rx="160.54" ry="155.98"/>
	</g>
	<g>
		
			<ellipse transform="matrix(0.3273 -0.9449 0.9449 0.3273 -48.4056 323.2191)" class="st11" cx="202.79" cy="195.6" rx="155.98" ry="160.54"/>
	</g>
	<g>
		
			<ellipse transform="matrix(0.0518 -0.9987 0.9987 0.0518 -3.1946 387.2266)" class="st12" cx="202.33" cy="195.3" rx="147.53" ry="155.39"/>
	</g>
	<g>
		
			<ellipse transform="matrix(0.2205 -0.9754 0.9754 0.2205 -32.7147 350.2732)" class="st12" cx="202.79" cy="195.6" rx="147.53" ry="155.39"/>
	</g>
	<g>
		
			<ellipse transform="matrix(0.9922 -0.1246 0.1246 0.9922 -22.8475 26.7549)" class="st13" cx="202.52" cy="196.08" rx="155.39" ry="151.74"/>
	</g>
	<g>
		<g>
			<ellipse class="st14" cx="206.68" cy="193.44" rx="151.17" ry="142.43"/>
		</g>
		<g>
			
				<ellipse transform="matrix(0.092 -0.9958 0.9958 0.092 -4.9587 381.4453)" class="st15" cx="206.68" cy="193.44" rx="142.51" ry="151.09"/>
		</g>
		<g>
			
				<ellipse transform="matrix(0.0326 -0.9995 0.9995 0.0326 6.4694 393.0022)" class="st16" cx="206.24" cy="193.16" rx="134.72" ry="146.31"/>
		</g>
		<g>
			
				<ellipse transform="matrix(0.1396 -0.9902 0.9902 0.1396 -13.7207 371.0924)" class="st17" cx="206.68" cy="193.44" rx="134.84" ry="146.18"/>
		</g>
		<g>
			
				<ellipse transform="matrix(0.9985 -0.0544 0.0544 0.9985 -10.237 11.5119)" class="st18" cx="206.42" cy="193.87" rx="146.29" ry="138.59"/>
		</g>
	</g>
	<g>
		<g>
			
				<ellipse transform="matrix(0.4835 -0.8754 0.8754 0.4835 -66.6751 274.4967)" class="st19" cx="199.26" cy="193.75" rx="154.29" ry="153.02"/>
		</g>
		<g>
			
				<ellipse transform="matrix(0.9204 -0.3911 0.3911 0.9204 -59.8991 93.3525)" class="st20" cx="199.26" cy="193.75" rx="153.24" ry="154.08"/>
		</g>
		<g>
			
				<ellipse transform="matrix(0.9835 -0.1809 0.1809 0.9835 -31.7252 39.1528)" class="st21" cx="198.78" cy="193.5" rx="148.53" ry="145.53"/>
		</g>
		<g>
			
				<ellipse transform="matrix(0.2519 -0.9678 0.9678 0.2519 -42.3015 340.7704)" class="st22" cx="199.26" cy="197.75" rx="145.47" ry="148.59"/>
		</g>
		<g>
			
				<ellipse transform="matrix(0.3927 -0.9197 0.9197 0.3927 -57.7462 301.0359)" class="st23" cx="199.05" cy="194.24" rx="151.1" ry="147.13"/>
		</g>
	</g>
	<g>
		
			<ellipse transform="matrix(0.9922 -0.1246 0.1246 0.9922 -22.6556 27.2028)" class="st24" cx="206.2" cy="194.77" rx="136.12" ry="128.37"/>
	</g>
	<g>
		
			<ellipse transform="matrix(0.1348 -0.9909 0.9909 0.1348 -13.6701 369.8542)" class="st25" cx="204.96" cy="192.76" rx="133.91" ry="136.08"/>
	</g>
	<g>
		
			<ellipse transform="matrix(0.1348 -0.9909 0.9909 0.1348 -17.7755 370.2615)" class="st26" cx="203.14" cy="195.31" rx="166.73" ry="168.86"/>
	</g>
</g>
</svg>
