<?xml version="1.0" encoding="UTF-8" standalone="no"?>
<svg
   viewBox="0 0 346.22 337.46"
   version="1.1"
   id="svg90"
   sodipodi:docname="funcscan_icon.svg"
   inkscape:version="1.2.2 (1:1.2.2+202212051552+b0a8486541)"
   inkscape:export-filename="funcscan_icon.png"
   inkscape:export-xdpi="96"
   inkscape:export-ydpi="96"
   xmlns:inkscape="http://www.inkscape.org/namespaces/inkscape"
   xmlns:sodipodi="http://sodipodi.sourceforge.net/DTD/sodipodi-0.dtd"
   xmlns="http://www.w3.org/2000/svg"
   xmlns:svg="http://www.w3.org/2000/svg">
  <sodipodi:namedview
     id="namedview92"
     pagecolor="#505050"
     bordercolor="#ffffff"
     borderopacity="1"
     inkscape:showpageshadow="0"
     inkscape:pageopacity="0"
     inkscape:pagecheckerboard="1"
     inkscape:deskcolor="#505050"
     showgrid="false"
     inkscape:zoom="2.7973686"
     inkscape:cx="217.34711"
     inkscape:cy="149.42614"
     inkscape:window-width="1920"
     inkscape:window-height="1163"
     inkscape:window-x="0"
     inkscape:window-y="0"
     inkscape:window-maximized="1"
     inkscape:current-layer="text39" />
  <defs
     id="defs4">
    <style
       id="style2">.cls-1,.cls-10,.cls-11,.cls-12,.cls-13,.cls-14,.cls-15,.cls-16,.cls-17,.cls-18,.cls-19,.cls-20,.cls-21,.cls-22,.cls-23,.cls-24,.cls-3,.cls-4,.cls-6,.cls-7,.cls-8,.cls-9{fill:none;}.cls-1,.cls-10,.cls-11,.cls-12,.cls-13,.cls-14,.cls-15,.cls-16,.cls-17,.cls-18,.cls-19,.cls-2,.cls-20,.cls-21,.cls-22,.cls-23,.cls-24,.cls-3,.cls-4,.cls-6,.cls-7,.cls-8,.cls-9{stroke:#3d4ea1;}.cls-1,.cls-10,.cls-11,.cls-12,.cls-13,.cls-14,.cls-15,.cls-16,.cls-17,.cls-18,.cls-19,.cls-2,.cls-20,.cls-21,.cls-22,.cls-23,.cls-24,.cls-5,.cls-6,.cls-7,.cls-8,.cls-9{stroke-miterlimit:10;}.cls-1,.cls-2,.cls-3,.cls-4{stroke-width:2px;}.cls-2,.cls-5{fill:#6266ae;}.cls-3{stroke-linecap:square;}.cls-3,.cls-4{stroke-linejoin:bevel;}.cls-5{font-size:45px;stroke:#6266ae;font-family:BerlinSansFBDemi-Bold, Berlin Sans FB Demi;font-weight:700;}.cls-10,.cls-11,.cls-12,.cls-13,.cls-14,.cls-15,.cls-16,.cls-17,.cls-18,.cls-19,.cls-20,.cls-21,.cls-22,.cls-23,.cls-24,.cls-6,.cls-7,.cls-8,.cls-9{stroke-linecap:round;stroke-width:3px;}.cls-6{stroke-dasharray:0 11.94;}.cls-7{stroke-dasharray:0 11.97;}.cls-8{stroke-dasharray:0 11.99;}.cls-9{stroke-dasharray:0 22.1;}.cls-10{stroke-dasharray:0 22.14;}.cls-11{stroke-dasharray:0 21.93;}.cls-12{stroke-dasharray:0 31.81;}.cls-13{stroke-dasharray:0 31.81;}.cls-14{stroke-dasharray:0 31.55;}.cls-15{stroke-dasharray:0 31.54;}.cls-16{stroke-dasharray:0 31.97;}.cls-17{stroke-dasharray:0 32.18;}.cls-18{stroke-dasharray:0 32.18;}.cls-19{stroke-dasharray:0 31.86;}.cls-20{stroke-dasharray:0 31.86;}.cls-21{stroke-dasharray:0 32.31;}.cls-22{stroke-dasharray:0 39.58;}.cls-23{stroke-dasharray:0 40.39;}.cls-24{stroke-dasharray:0 11.98;}</style>
  </defs>
  <g
     id="Layer_2"
     data-name="Layer 2">
    <g
       id="Layer_3"
       data-name="Layer 3">
      <polygon
         class="cls-1"
         points="104.73 141.43 90.98 117.62 104.73 93.8 132.23 93.8 145.97 117.62 132.23 141.43 104.73 141.43"
         id="polygon6" />
      <polygon
         class="cls-2"
         points="162.11 175.15 148.36 151.33 162.11 127.52 189.61 127.52 203.36 151.33 189.61 175.15 162.11 175.15"
         id="polygon8" />
      <polygon
         class="cls-1"
         points="161.99 120.42 148.24 96.61 161.99 72.8 189.49 72.8 203.24 96.61 189.49 120.42 161.99 120.42"
         id="polygon10" />
      <polygon
         class="cls-1"
         points="207.68 148.53 193.93 124.71 207.68 100.9 235.17 100.9 248.92 124.71 235.17 148.53 207.68 148.53"
         id="polygon12" />
      <line
         class="cls-1"
         x1="151.93"
         y1="138"
         x2="141.24"
         y2="131.32"
         id="line14" />
      <line
         class="cls-1"
         x1="156.08"
         y1="130.31"
         x2="147.02"
         y2="145.84"
         id="line16" />
      <line
         class="cls-1"
         x1="126.19"
         y1="88.83"
         x2="109.42"
         y2="88.83"
         id="line18" />
      <line
         class="cls-3"
         x1="208.39"
         y1="94.83"
         x2="201.34"
         y2="82.83"
         id="line20" />
      <line
         class="cls-4"
         x1="223.43"
         y1="95.17"
         x2="207.9"
         y2="95.17"
         id="line22" />
      <line
         class="cls-3"
         x1="206.66"
         y1="153.4"
         x2="220.43"
         y2="153.35"
         id="line24" />
      <line
         class="cls-4"
         x1="199.01"
         y1="166.09"
         x2="206.61"
         y2="152.81"
         id="line26" />
      <line
         class="cls-1"
         x1="117.81"
         y1="77.71"
         x2="117.81"
         y2="88.83"
         id="line28" />
      <circle
         class="cls-1"
         cx="118.48"
         cy="147.81"
         r="2.69"
         id="circle30" />
      <circle
         class="cls-1"
         cx="258.14"
         cy="105.24"
         r="2.69"
         id="circle32" />
      <line
         class="cls-1"
         x1="250.79"
         y1="119.34"
         x2="242.24"
         y2="104.91"
         id="line34" />
      <line
         class="cls-1"
         x1="256.08"
         y1="106.46"
         x2="246.51"
         y2="112.13"
         id="line36" />
    </g>
    <g
       id="Layer_4"
       data-name="Layer 4">
      <g
         aria-label="FUNCSCAN"
         transform="translate(61.45 221.43)"
         id="text39"
         class="cls-5"
         style="font-weight:700;font-size:45px;font-family:BerlinSansFBDemi-Bold, 'Berlin Sans FB Demi';fill:#6266ae;stroke:#6266ae;stroke-miterlimit:10">
        <path
           d="m 24.719238,-23.664551 q 0,0.241699 -0.439453,0.241699 -1.647949,0 -5.009765,-0.285644 -3.339844,-0.285645 -5.009766,-0.285645 -2.109375,0 -2.460938,0.153809 -0.812988,0.373535 -0.812988,2.109375 0,2.087402 1.054688,2.373047 0.439453,0.109863 1.340332,0.109863 1.516113,0 4.526367,-0.153808 3.032226,-0.175782 4.54834,-0.175782 0.725097,0 0.725097,3.867188 0,3.361816 -0.241699,3.911133 -0.153808,0.395507 -0.593262,0.395507 0.285645,0 -1.384277,-0.153808 -2.351074,-0.219727 -7.119141,-0.219727 -1.538085,0 -1.735839,0.02197 -1.120606,0.175781 -1.120606,0.944824 0,3.1201173 0.263672,7.1850587 0.219727,3.66943361 0.219727,3.2739258 0,0.57128906 -1.384278,0.65917969 Q 10.458984,0.28564453 8.1298828,0.28564453 4.0209961,0.28564453 2.8344727,0 2.1972656,-0.15380859 2.1972656,-0.68115234 q 0,-2.43896486 0.1538086,-7.31689456 0.1757813,-4.8999021 0.1757813,-7.3388671 0,-2.900391 -0.2636719,-7.294922 -0.3955078,-6.789551 -0.4174805,-7.294922 l -0.021973,-0.263672 q -0.021973,-0.549316 0.6591797,-0.549316 1.6259765,0 4.8999023,0.06592 3.2958985,0.06592 4.9438475,0.06592 1.757813,0 5.273438,-0.263672 3.537597,-0.263672 5.29541,-0.263672 1.098633,0 1.230469,0.900879 0,0.944824 0.08789,2.834473 0.04395,0.483398 0.285645,1.867675 0.219726,1.208497 0.219726,1.867676 z"
           id="path375" />
        <path
           d="m 53.547363,-10.788574 q 0,5.6030271 -1.340332,7.6464842 -2.460937,3.73535152 -12.282715,3.73535152 -4.438476,0 -6.833496,-0.68115234 Q 29.267578,-1.1865234 28.125,-4.284668 q -0.571289,-1.5161132 -0.571289,-5.4052734 0,-0.9008786 0.06592,-2.6806636 0.06592,-1.779786 0.06592,-2.658692 0,-2.548828 -0.241699,-7.646484 -0.2417,-5.097656 -0.2417,-7.624512 0,-0.527344 0.461426,-0.527344 1.340332,0 4.042969,0.109864 2.724609,0.109863 4.064941,0.109863 0.549317,0 0.549317,0.483398 0,2.900391 -0.197754,8.701172 -0.175781,5.778809 -0.175781,8.679199 0,3.4497074 0.725097,4.6582035 0.966797,1.6479492 4.042969,1.6479492 4.504395,0 4.504395,-4.3725587 0,-3.186035 -0.153809,-9.558105 -0.153809,-6.372071 -0.153809,-9.558106 0,-0.681152 0.549317,-0.681152 1.296386,0 3.911133,-0.109863 2.614746,-0.109864 3.911132,-0.109864 0.637207,0 0.637207,0.527344 0,2.526856 -0.219726,7.624512 -0.197754,5.097656 -0.197754,7.646484 0,0.703125 0.02197,2.131348 0.02197,1.40625 0.02197,2.109375 z"
           id="path377" />
        <path
           d="m 87.275391,-30.146484 q 0,2.504882 -0.219727,7.536621 -0.197754,5.009765 -0.197754,7.536621 V -0.59326172 Q 86.85791,0 86.220703,0 85.693359,0 84.616699,0.04394531 83.562012,0.08789062 83.034668,0.08789062 82.463379,0.08789062 81.320801,0 q -1.142578,-0.08789062 -1.713867,-0.08789062 -0.395508,0 -0.944825,-0.72509766 -1.582031,-2.13134762 -7.11914,-9.44824172 -1.516114,-2.043458 -4.614258,-6.020508 -0.08789,-0.131836 -0.32959,-0.263672 -0.175781,0.153808 -0.175781,0.483398 0,2.548828 0.131836,7.6464847 0.153808,5.0976562 0.153808,7.64648433 Q 66.708984,0 66.115723,0 h -7.602539 q -0.637207,0 -0.637207,-0.68115234 0,-2.37304686 0.219726,-7.16308596 0.241699,-4.7900387 0.241699,-7.1850587 0,-2.526855 -0.219726,-7.558594 -0.197754,-5.031738 -0.197754,-7.536621 0,-0.483398 0.856933,-0.483398 1.274415,0 3.14209,-0.175781 0.439453,-0.04395 1.73584,-0.285645 1.098633,-0.197754 1.73584,-0.197754 0.263672,0 0.812988,0.74707 l 8.195801,11.228028 q 1.098633,1.516113 3.317871,4.438476 0.549317,0.681153 0.944824,0.681153 0.285645,0 0.285645,-1.713867 0,-2.307129 -0.263672,-6.94336 -0.241699,-4.63623 -0.241699,-6.965332 0,-0.812988 0.461426,-0.812988 1.318359,0 3.97705,-0.109863 2.658692,-0.109864 3.977051,-0.109864 0.417481,0 0.417481,0.681153 z"
           id="path379" />
        <path
           d="m 117.02637,-4.9658203 q 0,0.3515625 -0.46143,0.9228516 -4.04297,4.81201167 -10.74463,4.81201167 -6.855466,0 -11.118162,-4.68017577 -4.152832,-4.5263672 -4.152832,-11.4257812 0,-6.679688 4.064942,-11.337891 4.240722,-4.877929 10.788572,-4.877929 7.11914,0 11.16211,4.372558 0.43945,0.483399 0.43945,0.856934 0,0.41748 -1.53808,3.098144 -1.51611,2.680664 -1.91162,3.010254 -0.17578,0.175782 -0.43946,0.175782 -0.10986,0 -1.09863,-0.878907 -1.18652,-1.054687 -2.3291,-1.647949 -1.73584,-0.878906 -3.60352,-0.878906 -3.22998,0 -5.16357,2.416992 -1.779785,2.241211 -1.779785,5.537109 0,3.339844 1.779785,5.6030277 1.93359,2.4609375 5.16357,2.4609375 1.91163,0 3.62549,-0.834961 1.12061,-0.5493164 2.28516,-1.5380859 0.9668,-0.8349613 1.07666,-0.8349613 0.21973,0 0.43945,0.2417 0.35156,0.3955074 1.91162,2.7465816 1.60401,2.4389649 1.60401,2.6806641 z"
           id="path381" />
        <path
           d="m 134.38477,-10.107422 q 0,4.4604493 -3.75733,7.6464845 -3.2959,2.8125 -8.02002,3.581543 -0.17578,0.021973 -0.28564,0.021973 -0.50537,0 -2.24121,-3.0761718 -1.73584,-3.0981446 -1.73584,-3.7792969 0,-0.2416992 0.32959,-0.3076172 3.18603,-0.7250977 4.21875,-1.2304688 2.28515,-1.1425781 2.28515,-3.3837894 0,-1.428222 -1.49414,-3.186035 -2.59277,-2.988281 -2.8125,-3.317871 -1.51611,-2.285156 -1.51611,-5.053711 0,-4.020996 3.71338,-6.679687 3.03222,-2.197266 7.44873,-2.856446 0.2417,-0.02197 0.37353,-0.02197 0.32959,0 0.52735,0.527343 0.57129,1.604004 2.65869,5.800782 0.0659,0.131836 0.0659,0.219726 0,0.373535 -0.39551,0.373535 -0.17578,0 -0.59326,-0.06592 -0.41748,-0.06592 -0.63721,-0.06592 -1.58203,0 -2.76855,0.725097 -1.42823,0.834961 -1.42823,2.329102 0,1.340332 1.58203,3.295898 2.79053,3.515625 2.92237,3.691406 1.56006,2.416993 1.56006,4.812012 z"
           id="path383" />
        <path
           d="m 163.69629,-4.9658203 q 0,0.3515625 -0.46143,0.9228516 -4.04297,4.81201167 -10.74463,4.81201167 -6.85546,0 -11.11816,-4.68017577 -4.15283,-4.5263672 -4.15283,-11.4257812 0,-6.679688 4.06494,-11.337891 4.24072,-4.877929 10.78857,-4.877929 7.11914,0 11.16211,4.372558 0.43946,0.483399 0.43946,0.856934 0,0.41748 -1.53809,3.098144 -1.51611,2.680664 -1.91162,3.010254 -0.17578,0.175782 -0.43945,0.175782 -0.10987,0 -1.09864,-0.878907 -1.18652,-1.054687 -2.3291,-1.647949 -1.73584,-0.878906 -3.60351,-0.878906 -3.22998,0 -5.16358,2.416992 -1.77978,2.241211 -1.77978,5.537109 0,3.339844 1.77978,5.6030277 1.9336,2.4609375 5.16358,2.4609375 1.91162,0 3.62548,-0.834961 1.12061,-0.5493164 2.28516,-1.5380859 0.9668,-0.8349613 1.07666,-0.8349613 0.21973,0 0.43945,0.2417 0.35157,0.3955074 1.91163,2.7465816 1.604,2.4389649 1.604,2.6806641 z"
           id="path385" />
        <path
           d="m 195.05127,-0.54931641 q 0,0.39550782 -0.54932,0.54931641 -0.65918,0.17578125 -4.08691,0.17578125 -3.14209,0 -4.04297,-0.17578125 -0.74707,-0.15380859 -0.94482,-0.98876953 -0.74707,-3.16406247 -1.16455,-3.38378907 -0.35157,-0.1538086 -5.88868,-0.1538086 -3.73535,0 -3.97705,0.1977539 -0.37353,0.3515625 -0.83496,2.3510742 Q 173.14453,-0.15380859 172.55127,0 q -0.74707,0.17578125 -5.00977,0.17578125 -3.36181,0 -3.36181,-0.63720703 0,-0.57128902 4.96582,-14.04052722 5.3833,-14.567871 5.84472,-16.018067 0.26368,-0.83496 0.61524,-0.83496 0.59326,0 1.82373,0.109863 1.25244,0.109863 1.86767,0.109863 0.59327,0 1.73584,-0.06592 1.16456,-0.08789 1.73584,-0.08789 0.41749,0 0.76905,0.725097 1.07666,2.307129 6.28418,15.820313 5.22949,13.6010739 5.22949,14.19433559 z M 179.47266,-20.566406 q -0.46143,0.966797 -1.56006,4.196777 -1.18653,3.427734 -1.18653,4.020996 0,0.395508 1.31836,0.439453 0.68116,0.04395 2.24121,0.04395 1.4502,0 1.60401,-0.351563 0.0439,-0.109863 0.0439,-0.307617 0,-0.725098 -1.01074,-3.999023 -0.98877,-3.164063 -1.45019,-4.042969 z"
           id="path387" />
        <path
           d="m 226.69189,-30.146484 q 0,2.504882 -0.21972,7.536621 -0.19776,5.009765 -0.19776,7.536621 V -0.59326172 Q 226.27441,0 225.63721,0 q -0.52735,0 -1.60401,0.04394531 -1.05468,0.04394531 -1.58203,0.04394531 -0.57129,0 -1.71387,-0.08789062 -1.14257,-0.08789062 -1.71386,-0.08789062 -0.39551,0 -0.94483,-0.72509766 -1.58203,-2.13134762 -7.11914,-9.44824172 -1.51611,-2.043458 -4.61426,-6.020508 -0.0879,-0.131836 -0.32959,-0.263672 -0.17578,0.153808 -0.17578,0.483398 0,2.548828 0.13184,7.6464847 0.15381,5.0976562 0.15381,7.64648433 Q 206.12549,0 205.53223,0 h -7.60254 q -0.63721,0 -0.63721,-0.68115234 0,-2.37304686 0.21973,-7.16308596 0.2417,-4.7900387 0.2417,-7.1850587 0,-2.526855 -0.21973,-7.558594 -0.19775,-5.031738 -0.19775,-7.536621 0,-0.483398 0.85693,-0.483398 1.27441,0 3.14209,-0.175781 0.43945,-0.04395 1.73584,-0.285645 1.09863,-0.197754 1.73584,-0.197754 0.26367,0 0.81299,0.74707 l 8.1958,11.228028 q 1.09863,1.516113 3.31787,4.438476 0.54932,0.681153 0.94482,0.681153 0.28565,0 0.28565,-1.713867 0,-2.307129 -0.26367,-6.94336 -0.2417,-4.63623 -0.2417,-6.965332 0,-0.812988 0.46142,-0.812988 1.31836,0 3.97705,-0.109863 2.65869,-0.109864 3.97705,-0.109864 0.41748,0 0.41748,0.681153 z"
           id="path389" />
      </g>
    </g>
    <g
       id="Layer_2-2"
       data-name="Layer 2">
      <ellipse
         class="cls-6"
         cx="173.11"
         cy="168.44"
         rx="171.61"
         ry="166.73"
         id="ellipse42" />
      <ellipse
         class="cls-6"
         cx="173.11"
         cy="168.44"
         rx="166.73"
         ry="171.61"
         transform="translate(-25.07 306.52) rotate(-79.08)"
         id="ellipse44" />
      <ellipse
         class="cls-7"
         cx="172.61"
         cy="168.11"
         rx="157.7"
         ry="166.1"
         transform="translate(-4.23 331.77) rotate(-87.03)"
         id="ellipse46" />
      <ellipse
         class="cls-7"
         cx="173.11"
         cy="168.44"
         rx="157.7"
         ry="166.1"
         transform="translate(-29.36 300.15) rotate(-77.26)"
         id="ellipse48" />
      <ellipse
         class="cls-8"
         cx="172.81"
         cy="168.95"
         rx="166.1"
         ry="162.21"
         transform="translate(-19.7 22.84) rotate(-7.16)"
         id="ellipse50" />
      <ellipse
         class="cls-9"
         cx="172.83"
         cy="169.46"
         rx="160.54"
         ry="155.98"
         id="ellipse52" />
      <ellipse
         class="cls-9"
         cx="172.83"
         cy="169.46"
         rx="155.98"
         ry="160.54"
         transform="translate(-43.86 277.32) rotate(-70.9)"
         id="ellipse54" />
      <ellipse
         class="cls-10"
         cx="172.37"
         cy="169.15"
         rx="147.53"
         ry="155.39"
         transform="translate(-5.5 332.52) rotate(-87.03)"
         id="ellipse56" />
      <ellipse
         class="cls-10"
         cx="172.83"
         cy="169.46"
         rx="147.53"
         ry="155.39"
         transform="translate(-30.57 300.67) rotate(-77.26)"
         id="ellipse58" />
      <ellipse
         class="cls-11"
         cx="172.56"
         cy="169.93"
         rx="155.39"
         ry="151.74"
         transform="translate(-19.82 22.82) rotate(-7.16)"
         id="ellipse60" />
      <ellipse
         class="cls-12"
         cx="176.72"
         cy="167.3"
         rx="151.17"
         ry="142.43"
         id="ellipse62" />
      <ellipse
         class="cls-13"
         cx="176.72"
         cy="167.3"
         rx="142.51"
         ry="151.09"
         transform="matrix(0.09, -1, 1, 0.09, -6.13, 327.88)"
         id="ellipse64" />
      <ellipse
         class="cls-14"
         cx="176.28"
         cy="167.02"
         rx="134.72"
         ry="146.31"
         transform="matrix(0.03, -1, 1, 0.03, 3.61, 337.77)"
         id="ellipse66" />
      <ellipse
         class="cls-15"
         cx="176.72"
         cy="167.3"
         rx="134.84"
         ry="146.18"
         transform="translate(-13.61 318.93) rotate(-81.97)"
         id="ellipse68" />
      <ellipse
         class="cls-16"
         cx="176.46"
         cy="167.73"
         rx="146.29"
         ry="138.59"
         transform="translate(-8.86 9.84) rotate(-3.12)"
         id="ellipse70" />
      <ellipse
         class="cls-17"
         cx="169.3"
         cy="167.6"
         rx="154.29"
         ry="153.02"
         transform="translate(-59.27 234.77) rotate(-61.09)"
         id="ellipse72" />
      <ellipse
         class="cls-18"
         cx="169.3"
         cy="167.6"
         rx="153.24"
         ry="154.08"
         transform="translate(-52.06 79.55) rotate(-23.02)"
         id="ellipse74" />
      <ellipse
         class="cls-19"
         cx="168.82"
         cy="167.36"
         rx="148.53"
         ry="145.53"
         transform="translate(-27.49 33.3) rotate(-10.42)"
         id="ellipse76" />
      <ellipse
         class="cls-20"
         cx="169.3"
         cy="171.6"
         rx="145.47"
         ry="148.59"
         transform="matrix(0.25, -0.97, 0.97, 0.25, -39.42, 292.22)"
         id="ellipse78" />
      <ellipse
         class="cls-21"
         cx="169.09"
         cy="168.1"
         rx="151.1"
         ry="147.13"
         transform="translate(-51.9 257.61) rotate(-66.88)"
         id="ellipse80" />
      <ellipse
         class="cls-22"
         cx="176.24"
         cy="168.63"
         rx="136.12"
         ry="128.37"
         transform="translate(-19.63 23.27) rotate(-7.16)"
         id="ellipse82" />
      <ellipse
         class="cls-23"
         cx="175"
         cy="166.61"
         rx="133.91"
         ry="136.08"
         transform="translate(-13.69 317.55) rotate(-82.25)"
         id="ellipse84" />
      <ellipse
         class="cls-24"
         cx="173.18"
         cy="169.17"
         rx="166.73"
         ry="168.86"
         transform="translate(-17.79 317.96) rotate(-82.25)"
         id="ellipse86" />
    </g>
  </g>
</svg>
