<svg xmlns="http://www.w3.org/2000/svg" xmlns:xlink="http://www.w3.org/1999/xlink" viewBox="0 0 484.73 190.68"><defs><style>.cls-1{fill:#25af63;}.cls-2{fill:#eddd86;}.cls-3{fill:#a0918f;}.cls-4{fill:#3f2c2a;}.cls-5{fill:#3c6f36;}.cls-6,.cls-9{fill:#fff;}.cls-7{fill:url(#linear-gradient);}.cls-8,.cls-9{isolation:isolate;}.cls-9{font-size:92.95px;font-family:Arial-BoldMT, Arial;font-weight:700;}.cls-10,.cls-11,.cls-12,.cls-13,.cls-14,.cls-15,.cls-17,.cls-18{fill:none;}.cls-10,.cls-11,.cls-12,.cls-13,.cls-14{stroke:#365a9a;stroke-linecap:round;}.cls-10,.cls-11,.cls-12,.cls-13,.cls-14,.cls-15,.cls-16,.cls-19{stroke-miterlimit:10;}.cls-10{stroke-dasharray:0 3;}.cls-11{stroke-dasharray:0 7;}.cls-12{stroke-dasharray:0 9;}.cls-13{stroke-dasharray:0 2;}.cls-14{stroke-dasharray:0 4;}.cls-15,.cls-16,.cls-17,.cls-18{stroke:#507da7;stroke-width:0.5px;}.cls-16{fill:#8aa1c1;}.cls-17{stroke-linecap:square;}.cls-17,.cls-18{stroke-linejoin:bevel;}.cls-19{font-size:7px;fill:#507da7;stroke:#4c7db4;font-family:MyriadPro-Regular, Myriad Pro;letter-spacing:0em;}</style><linearGradient id="linear-gradient" x1="-428.25" y1="319.59" x2="-427.25" y2="319.59" gradientTransform="matrix(15.28, 11.94, 11.94, -15.28, 2821.61, 10035.63)" gradientUnits="userSpaceOnUse"><stop offset="0" stop-color="#10552c"/><stop offset="0.21" stop-color="#10552c"/><stop offset="0.58" stop-color="#25af64"/><stop offset="0.85" stop-color="#25af64"/><stop offset="1" stop-color="#25af64"/></linearGradient></defs><g id="Layer_2" data-name="Layer 2"><g id="Layer_5" data-name="Layer 5"><g id="layer4"><g id="g856"><g id="g821"><g id="g551"><path id="path24" class="cls-1" d="M411.3,40.87v1.45s0,0-.08,0l-.72-.6a26.06,26.06,0,0,0-5.28-3.54,4.5,4.5,0,0,0-1-.45c-.05,0-.09-.08-.13-.08a20.37,20.37,0,0,0-2.21-.72,12.14,12.14,0,0,0-4.95-.08,16.38,16.38,0,0,0-5.84,2.58,33.75,33.75,0,0,0-4.88,4.1c-.28.28-.28.28-.44-.08A30.56,30.56,0,0,0,383,38.74a10.68,10.68,0,0,0-3-2.9,4.86,4.86,0,0,0-3.94-.68,10.79,10.79,0,0,0-4.47,2.57,27.13,27.13,0,0,0-2.26,2c-.68.6-1.33,1.21-2,1.81-.12.12-.2.12-.32,0a8.62,8.62,0,0,0-2.26-1.81,4.65,4.65,0,0,0-3.87-.33,13.69,13.69,0,0,0-3.1,1.62c-.4.24-.76.52-1.16.72v-.08a.51.51,0,0,0,0-.24,48.5,48.5,0,0,1,.48-5.36,25.1,25.1,0,0,1,2.09-7,14.57,14.57,0,0,1,3.27-4.43,15,15,0,0,1,6.28-3.35,34.25,34.25,0,0,1,7.73-1.17l3.1-.12c.52.21,1.05.33,1.57.49.77.24,1.53.48,2.3.68l1.16.44a14.07,14.07,0,0,1,4.19,2.22c.32.24.65.52,1,.81-.08-.25-.16-.45-.24-.69a6.75,6.75,0,0,0-2.78-3.54c-.57-.37-1.17-.61-1.77-.93a.24.24,0,0,0,.16,0,42.15,42.15,0,0,1,5.51-.56,31.54,31.54,0,0,1,4.76.12,22,22,0,0,1,5.39,1.21,14.7,14.7,0,0,1,6.53,4.63,17.16,17.16,0,0,1,3.06,6.4,32.13,32.13,0,0,1,.92,7c0,.84,0,1.73,0,2.61Z"/><path id="path26" class="cls-2" d="M411.3,38.22h0v2.65h0Z"/><path id="path28" class="cls-3" d="M396.6,0V0h-1.81V0Z"/><path id="path30" class="cls-1" d="M397.77,75.87a27.63,27.63,0,0,0,2.94-1.45c1.13-.68,2.18-1.41,3.22-2.17.89-.65,1.73-1.33,2.58-2.06L408,69c.08-.08.08,0,.12,0,.16.65.28,1.33.44,2,.21.92.33,1.85.45,2.78a17.31,17.31,0,0,1,.08,3.22,12.68,12.68,0,0,1-.81,3.9,10.58,10.58,0,0,1-1.09,2.18,10.12,10.12,0,0,1-2,2.37,15.16,15.16,0,0,1-3.1,2.18,22.33,22.33,0,0,1-4.75,1.93,37.69,37.69,0,0,1-4.79,1.09,7.66,7.66,0,0,1-1.33.16,9.29,9.29,0,0,1-2.74-.56c-1.33-.53-2.5-1.33-3.83-1.94a6.28,6.28,0,0,0-2.21-.6,3.24,3.24,0,0,0-2.58,1l-1.57,1.57A5.76,5.76,0,0,1,375.06,92a8.73,8.73,0,0,1-2.5,0,23.08,23.08,0,0,1-3.38-.77,14.8,14.8,0,0,1-4.47-2.29,12.55,12.55,0,0,1-3.14-3.55,14.88,14.88,0,0,1-1.69-4.47,18.86,18.86,0,0,1-.32-2.09,17.49,17.49,0,0,1-.13-3,37,37,0,0,1,.37-4.19c.16.16.32.28.44.4a20,20,0,0,0,2.94,2.18A16,16,0,0,0,367,75.79a12.73,12.73,0,0,0,2.74.44,14.72,14.72,0,0,0,2.3,0,12.59,12.59,0,0,0,2.7-.36.78.78,0,0,0,.32,0c.8-.16,1.61-.36,2.42-.6s1.81-.57,2.69-.89,1.73-.68,2.58-1a.48.48,0,0,1,.6.08,19.84,19.84,0,0,0,4.6,2.7,12.6,12.6,0,0,0,5.71.93,23.56,23.56,0,0,0,4.15-1.17Z"/><path id="path32-3" class="cls-2" d="M397.77,75.87a14.73,14.73,0,0,1-4.11,1A12.6,12.6,0,0,1,388,76a17.37,17.37,0,0,1-4.6-2.7.48.48,0,0,0-.6-.08c-.84.36-1.69.73-2.58,1s-1.77.64-2.69.88-1.62.41-2.42.61a1,1,0,0,1-.32,0l.84-1A10.87,10.87,0,0,0,378,70.31c.64-2.25,1.29-4.55,1.85-6.84.4-1.7.73-3.39,1-5.12.16-1.25.4-6,.32-7.13a28.27,28.27,0,0,0-2.38-9.94,6.3,6.3,0,0,0-4.31-3.71,4.46,4.46,0,0,0-2.61.12c-.08,0-.12.08-.2,0a10.54,10.54,0,0,1,4.47-2.57,5,5,0,0,1,3.94.68,11.27,11.27,0,0,1,3,2.9,30.56,30.56,0,0,1,2.78,4.75c.16.36.16.36.44.08a28.91,28.91,0,0,1,4.88-4.1,16.07,16.07,0,0,1,5.84-2.58,12.14,12.14,0,0,1,4.95.08,11,11,0,0,1,2.21.72s.13,0,.13.08a9.38,9.38,0,0,0-5.6,2.1,8.85,8.85,0,0,0-2.1,2.13,14.61,14.61,0,0,0-1.16,2.22A28.66,28.66,0,0,0,393.58,49a26.2,26.2,0,0,0-.72,4.31,31.78,31.78,0,0,0-.08,3.38c0,1.37.2,2.74.36,4.15.28,2.29.69,4.59,1.09,6.88.2,1.25.36,2.54.6,3.83a6.29,6.29,0,0,0,2.82,4.27s.08,0,.12,0Z"/><path id="path34" class="cls-4" d="M394.79,0h1.81a15.15,15.15,0,0,1,4.27.81c1.09.36,1.33,1.08.69,2a6.23,6.23,0,0,1-1.77,1.57A13.2,13.2,0,0,1,397,5.84a2.08,2.08,0,0,1-2.62-1,3.18,3.18,0,0,1-.44-1c0-.13-.08-.17-.21-.17a6.42,6.42,0,0,0-5.91,1.74,10.63,10.63,0,0,0-2.74,4.71,18.19,18.19,0,0,0-.85,4.91,23.34,23.34,0,0,0,.24,4.43,4.29,4.29,0,0,1,.12.77.77.77,0,0,1-.32.76,1.46,1.46,0,0,1-.92.16c-.77-.24-1.54-.48-2.3-.68v-.53c0-.8,0-1.57,0-2.37A26.87,26.87,0,0,1,383,8.5a13.79,13.79,0,0,1,4-5.56A12.08,12.08,0,0,1,392,.44a13.81,13.81,0,0,1,2.78-.4Z"/><path id="path36" class="cls-5" d="M383.4,21.1a1.46,1.46,0,0,0,.92-.16.76.76,0,0,0,.32-.76c0-.25-.08-.53-.12-.77.16,0,.28,0,.45,0,.56.32,1.16.6,1.77.93a6.75,6.75,0,0,1,2.78,3.54c.08.24.16.44.24.68-.32-.28-.65-.56-1-.8a16.85,16.85,0,0,0-4.19-2.22A10.55,10.55,0,0,1,383.4,21.1Z"/><path id="path38" class="cls-5" d="M381.1,19.89v.53c-.52-.16-1.05-.28-1.57-.49C380.09,19.89,380.62,19.89,381.1,19.89Z"/></g><g id="g596"><path id="path569" class="cls-6" d="M144.16,73.18a25.71,25.71,0,0,1-11.32-2.45,19.24,19.24,0,0,1-8.12-7.35,23.35,23.35,0,0,1-3-12.09q0-11.4,6.09-17.24t16.23-5.92a34.8,34.8,0,0,1,7.18.77,27.56,27.56,0,0,1,6.42,1.94V41.66a45.67,45.67,0,0,0-6.17-2.28,17.81,17.81,0,0,0-5.41-.85c-3.71,0-6.62.93-8.7,2.79s-3.13,4.65-3.13,8.54q0,6.49,2.88,9.63t9.55,3.13q5,0,11.07-3.38V70a26.25,26.25,0,0,1-6.34,2.37,28.76,28.76,0,0,1-7.27.84Z"/><path id="path571" class="cls-6" d="M185.82,73.35q-10.81,0-16.22-5.75t-5.41-17.07q0-11.83,5.32-17.24t16.31-5.41q10.91,0,16.4,5.58t5.49,17.07q0,11.16-5.66,17t-16.23,5.83Zm0-10.06a8.17,8.17,0,0,0,7-3.21q2.35-3.3,2.36-9.55,0-6.84-2.36-9.72t-7-3c-3.27,0-5.63,1-7.1,3s-2.11,5.16-2.11,9.72q0,6.51,2.2,9.64t7,3.12Z"/><path id="path573" class="cls-6" d="M216.4,33.8a17.79,17.79,0,0,1,4.4-2.45,44.82,44.82,0,0,1,7.1-2.29,31,31,0,0,1,7.6-1q7,0,9.72,2.11v9.22a46.75,46.75,0,0,0-9.72-.77A40.94,40.94,0,0,0,229,39v33H216.4Z"/><path id="path575" class="cls-6" d="M270,27.88q20,0,19.78,26.12H261.55q1.6,8.86,11.91,8.87a22.16,22.16,0,0,0,6.09-.84A64.27,64.27,0,0,0,286,59.66V70.48a40.34,40.34,0,0,1-15.55,2.87A23.81,23.81,0,0,1,259,70.73a18.83,18.83,0,0,1-7.6-7.69,24.19,24.19,0,0,1-2.71-11.75q0-11.16,5.49-17.24T270,27.88Zm-.51,9.64q-6.76,0-8,8.45h15.81c-.4-3-1.21-5.21-2.45-6.51a6.86,6.86,0,0,0-5.33-1.94Z"/><path id="path577" class="cls-6" d="M322.86,8.19h9.05L300.8,80.36h-8.95Z"/></g><g id="g589"><path id="path559" class="cls-1" d="M0,33a41.65,41.65,0,0,1,10.06-3.29,55.3,55.3,0,0,1,12.08-1.53q9,0,13.61,3.55t4.56,11.67V72.08H27.72V45.88q0-7.35-8.28-7.35a17.91,17.91,0,0,0-3.8.42,11.73,11.73,0,0,0-3.05,1V72.08H0Z"/><path id="path561" class="cls-1" d="M54.71,39H48.46V29.32H54.8v-1q.08-9.63,4.39-13.35t11.92-3.8a19,19,0,0,1,3,.25,17.72,17.72,0,0,1,2.62.59V23.06a6.42,6.42,0,0,0-1.86-1.35,4.9,4.9,0,0,0-2.37-.51,5.24,5.24,0,0,0-3.72,1.27c-.9.85-1.35,2.28-1.35,4.31v2.54h9.3V39H67.31V72.08H54.71Z"/><path id="path563" class="cls-1" d="M85.94,41.83h25.78v8.7H85.94Z"/><path id="path67" class="cls-7" d="M95.72,41.83l-8.67,8.7h24.6v-8.7Z"/></g></g><g id="text4743" class="cls-8"><text class="cls-9" transform="translate(76.69 155.69)">funcscan</text></g></g></g><circle class="cls-10" cx="34.67" cy="121.54" r="34.15"/><ellipse class="cls-11" cx="34.78" cy="121.37" rx="28.95" ry="28.15"/><circle class="cls-12" cx="34.71" cy="121.49" r="28.15"/><circle class="cls-10" cx="35.11" cy="121.44" r="30"/><ellipse class="cls-13" cx="34.56" cy="121.45" rx="30.55" ry="30"/><ellipse class="cls-14" cx="34.74" cy="121.39" rx="29.64" ry="29.29"/><circle class="cls-13" cx="34.67" cy="121.54" r="34.15"/><circle class="cls-13" cx="34.64" cy="121.51" r="33.35"/><ellipse class="cls-13" cx="34.78" cy="121.5" rx="32.58" ry="32.24"/><ellipse class="cls-13" cx="35.02" cy="121.56" rx="31.99" ry="31.68"/><circle class="cls-13" cx="35.11" cy="121.44" r="31.09"/><polygon class="cls-15" points="17.38 120.25 13.97 114.18 17.38 108.1 24.2 108.1 27.61 114.18 24.2 120.25 17.38 120.25"/><polygon class="cls-16" points="31.61 128.86 28.2 122.78 31.61 116.7 38.42 116.7 41.83 122.78 38.42 128.86 31.61 128.86"/><polygon class="cls-15" points="31.58 114.89 28.17 108.81 31.58 102.74 38.39 102.74 41.8 108.81 38.39 114.89 31.58 114.89"/><polygon class="cls-15" points="42.9 122.07 39.49 115.99 42.9 109.91 49.72 109.91 53.12 115.99 49.72 122.07 42.9 122.07"/><line class="cls-15" x1="29.08" y1="119.38" x2="26.43" y2="117.68"/><line class="cls-15" x1="30.11" y1="117.42" x2="27.87" y2="121.38"/><line class="cls-15" x1="22.7" y1="107.2" x2="18.55" y2="107.2"/><line class="cls-17" x1="42.86" y1="108.73" x2="41.11" y2="105.67"/><line class="cls-18" x1="46.59" y1="108.82" x2="42.74" y2="108.82"/><line class="cls-17" x1="42.9" y1="122.93" x2="46.31" y2="122.92"/><line class="cls-18" x1="41" y1="126.17" x2="42.88" y2="122.78"/><line class="cls-15" x1="20.62" y1="104.36" x2="20.62" y2="107.2"/><ellipse class="cls-15" cx="20.79" cy="121.88" rx="0.67" ry="0.69"/><ellipse class="cls-15" cx="55.41" cy="111.02" rx="0.67" ry="0.69"/><line class="cls-15" x1="53.59" y1="114.62" x2="51.47" y2="110.93"/><line class="cls-15" x1="54.9" y1="111.33" x2="52.53" y2="112.78"/><text class="cls-19" transform="translate(14.53 136.24) scale(0.97 1)">F U N C S C A N</text></g></g></svg>