<?xml version="1.0" encoding="UTF-8" standalone="no"?>
<svg
   viewBox="0 0 440.74 170.86"
   version="1.1"
   id="svg3232"
   sodipodi:docname="nf-core-funcscan_logo_flat_light.svg"
   xml:space="preserve"
   width="440.73999"
   height="170.86"
   inkscape:version="1.2.2 (1:1.2.2+202212051552+b0a8486541)"
   inkscape:export-filename="nf-core-funcscan_logo_flat_light.png"
   inkscape:export-xdpi="96"
   inkscape:export-ydpi="96"
   xmlns:inkscape="http://www.inkscape.org/namespaces/inkscape"
   xmlns:sodipodi="http://sodipodi.sourceforge.net/DTD/sodipodi-0.dtd"
   xmlns="http://www.w3.org/2000/svg"
   xmlns:svg="http://www.w3.org/2000/svg"><sodipodi:namedview
     id="namedview3234"
     pagecolor="#505050"
     bordercolor="#ffffff"
     borderopacity="1"
     inkscape:showpageshadow="0"
     inkscape:pageopacity="0"
     inkscape:pagecheckerboard="1"
     inkscape:deskcolor="#505050"
     showgrid="false"
     inkscape:zoom="1.8978415"
     inkscape:cx="226.83665"
     inkscape:cy="96.952248"
     inkscape:window-width="1920"
     inkscape:window-height="1043"
     inkscape:window-x="0"
     inkscape:window-y="0"
     inkscape:window-maximized="1"
     inkscape:current-layer="text4743" /><defs
     id="defs3145"><style
       id="style3132">.cls-1{fill:#25af63;}.cls-2{fill:#eddd86;}.cls-3{fill:#a0918f;}.cls-4{fill:#3f2c2a;}.cls-5{fill:#3c6f36;}.cls-6,.cls-9{fill:#fff;}.cls-7{fill:url(#linear-gradient);}.cls-8,.cls-9{isolation:isolate;}.cls-9{font-size:92.95px;font-family:MavenPro-Bold, Maven Pro;font-weight:700;}.cls-10,.cls-11,.cls-12,.cls-13,.cls-14,.cls-15,.cls-17,.cls-18,.cls-19{fill:none;}.cls-10,.cls-11,.cls-12,.cls-13,.cls-14,.cls-15,.cls-16,.cls-17,.cls-18{stroke:#3d4da1;}.cls-10,.cls-11,.cls-12,.cls-13,.cls-14{stroke-linecap:round;}.cls-10,.cls-11,.cls-12,.cls-13,.cls-14,.cls-15,.cls-16,.cls-19,.cls-20{stroke-miterlimit:10;}.cls-10{stroke-dasharray:0 3;}.cls-11{stroke-dasharray:0 7;}.cls-12{stroke-dasharray:0 9;}.cls-13{stroke-dasharray:0 2;}.cls-14{stroke-dasharray:0 4;}.cls-15,.cls-16,.cls-17,.cls-18,.cls-19{stroke-width:0.5px;}.cls-16,.cls-20{fill:#6265ae;}.cls-17{stroke-linecap:square;}.cls-17,.cls-18{stroke-linejoin:bevel;}.cls-19{stroke:#658e9c;}.cls-20{font-size:7.34px;stroke:#6265ae;font-family:MyriadPro-Regular, Myriad Pro;letter-spacing:0em;}</style><linearGradient
       id="linear-gradient"
       x1="-428.16"
       y1="319.59"
       x2="-427.16"
       y2="319.59"
       gradientTransform="matrix(15.28,11.94,11.94,-15.28,2820.37,10034.6)"
       gradientUnits="userSpaceOnUse"><stop
         offset="0"
         stop-color="#10552c"
         id="stop3134" /><stop
         offset="0.21"
         stop-color="#10552c"
         id="stop3136" /><stop
         offset="0.58"
         stop-color="#25af64"
         id="stop3138" /><stop
         offset="0.85"
         stop-color="#25af64"
         id="stop3140" /><stop
         offset="1"
         stop-color="#25af64"
         id="stop3142" /></linearGradient></defs><g
     id="g3948"
     transform="translate(13.440671,10.118154)"><g
       id="Layer_2"
       data-name="Layer 2"><g
         id="Layer_5"
         data-name="Layer 5"><g
           id="layer4"><g
             id="g856"><g
               id="g821"><g
                 id="g551"><path
                   id="path24"
                   class="cls-1"
                   d="m 411.39,40.87 v 1.45 c 0,0 0,0 -0.08,0 l -0.73,-0.6 a 26,26 0 0 0 -5.27,-3.54 4.58,4.58 0 0 0 -1,-0.45 c 0,0 -0.08,-0.08 -0.12,-0.08 A 20.37,20.37 0 0 0 402,37 a 12.19,12.19 0 0 0 -5,-0.08 16.53,16.53 0 0 0 -5.84,2.58 33.66,33.66 0 0 0 -4.87,4.1 c -0.28,0.28 -0.28,0.28 -0.44,-0.08 a 31.37,31.37 0 0 0 -2.78,-4.75 10.82,10.82 0 0 0 -3,-2.9 4.88,4.88 0 0 0 -4,-0.68 10.91,10.91 0 0 0 -4.47,2.57 27,27 0 0 0 -2.25,2 c -0.69,0.6 -1.33,1.21 -2,1.81 -0.12,0.12 -0.2,0.12 -0.32,0 a 8.58,8.58 0 0 0 -2.25,-1.81 4.65,4.65 0 0 0 -3.87,-0.33 13.48,13.48 0 0 0 -3.1,1.62 c -0.4,0.24 -0.77,0.52 -1.17,0.72 v -0.08 a 0.51,0.51 0 0 0 0,-0.24 46.21,46.21 0 0 1 0.49,-5.36 24.77,24.77 0 0 1 2.09,-7 14.54,14.54 0 0 1 3.26,-4.43 15.08,15.08 0 0 1 6.28,-3.35 34.42,34.42 0 0 1 7.74,-1.17 l 3.1,-0.12 c 0.52,0.21 1,0.33 1.57,0.49 0.76,0.24 1.53,0.48 2.29,0.68 l 1.17,0.44 a 14.07,14.07 0 0 1 4.19,2.22 c 0.32,0.24 0.64,0.52 1,0.81 -0.09,-0.25 -0.17,-0.45 -0.25,-0.69 a 6.7,6.7 0 0 0 -2.78,-3.54 19.75,19.75 0 0 0 -1.77,-0.93 0.24,0.24 0 0 0 0.16,0 42.48,42.48 0 0 1 5.52,-0.56 31.41,31.41 0 0 1 4.75,0.12 21.92,21.92 0 0 1 5.4,1.21 14.61,14.61 0 0 1 6.52,4.63 17,17 0 0 1 3.06,6.4 31.55,31.55 0 0 1 0.93,7 c 0,0.84 0,1.73 0,2.61 z" /><path
                   id="path26"
                   class="cls-2"
                   d="m 411.39,38.22 v 0 2.65 0 z" /><path
                   id="path28"
                   class="cls-3"
                   d="m 396.69,0 v 0 h -1.81 v 0 z" /><path
                   id="path30"
                   class="cls-1"
                   d="m 397.86,75.87 a 28.61,28.61 0 0 0 2.94,-1.45 c 1.13,-0.68 2.17,-1.41 3.22,-2.17 0.89,-0.65 1.73,-1.33 2.58,-2.06 L 408.05,69 c 0.08,-0.08 0.08,0 0.12,0 0.16,0.65 0.28,1.33 0.44,2 0.2,0.92 0.32,1.85 0.44,2.78 a 17.31,17.31 0 0 1 0.08,3.22 13,13 0 0 1 -0.8,3.9 11.1,11.1 0 0 1 -1.09,2.18 10.36,10.36 0 0 1 -2,2.37 15.72,15.72 0 0 1 -3.1,2.18 22.33,22.33 0 0 1 -4.75,1.93 38.24,38.24 0 0 1 -4.8,1.09 7.43,7.43 0 0 1 -1.33,0.16 9.22,9.22 0 0 1 -2.73,-0.56 c -1.33,-0.53 -2.5,-1.33 -3.83,-1.94 a 6.28,6.28 0 0 0 -2.21,-0.6 3.23,3.23 0 0 0 -2.58,1 l -1.57,1.57 a 5.8,5.8 0 0 1 -3.19,1.72 8.72,8.72 0 0 1 -2.5,0 22.79,22.79 0 0 1 -3.38,-0.77 14.8,14.8 0 0 1 -4.47,-2.29 12.55,12.55 0 0 1 -3.14,-3.55 15.18,15.18 0 0 1 -1.7,-4.47 18.86,18.86 0 0 1 -0.32,-2.09 18.58,18.58 0 0 1 -0.12,-3 37,37 0 0 1 0.36,-4.19 c 0.16,0.16 0.33,0.28 0.45,0.4 a 19.47,19.47 0 0 0 2.94,2.18 15.65,15.65 0 0 0 3.78,1.61 12.63,12.63 0 0 0 2.74,0.44 14.72,14.72 0 0 0 2.3,0 12.42,12.42 0 0 0 2.69,-0.36 0.83,0.83 0 0 0 0.33,0 c 0.8,-0.16 1.61,-0.36 2.41,-0.6 0.8,-0.24 1.81,-0.57 2.7,-0.89 0.89,-0.32 1.73,-0.68 2.58,-1 a 0.48,0.48 0 0 1 0.6,0.08 20,20 0 0 0 4.59,2.7 12.64,12.64 0 0 0 5.72,0.93 23.56,23.56 0 0 0 4.15,-1.17 z" /><path
                   id="path32-3"
                   class="cls-2"
                   d="m 397.86,75.87 a 14.73,14.73 0 0 1 -4.11,1 A 12.66,12.66 0 0 1 388,76 a 17.48,17.48 0 0 1 -4.59,-2.7 0.48,0.48 0 0 0 -0.6,-0.08 c -0.85,0.36 -1.69,0.73 -2.58,1 -0.89,0.27 -1.77,0.64 -2.7,0.88 -0.93,0.24 -1.61,0.41 -2.41,0.61 a 1.05,1.05 0 0 1 -0.33,0 c 0.29,-0.32 0.57,-0.65 0.85,-1 a 11,11 0 0 0 2.38,-4.47 c 0.64,-2.25 1.28,-4.55 1.85,-6.84 0.4,-1.7 0.72,-3.39 1,-5.12 a 69.58,69.58 0 0 0 0.33,-7.13 28.27,28.27 0 0 0 -2.38,-9.94 6.32,6.32 0 0 0 -4.31,-3.71 4.5,4.5 0 0 0 -2.62,0.12 c -0.08,0 -0.12,0.08 -0.2,0 a 10.66,10.66 0 0 1 4.47,-2.57 5,5 0 0 1 4,0.68 11.42,11.42 0 0 1 3,2.9 31.37,31.37 0 0 1 2.78,4.75 c 0.16,0.36 0.16,0.36 0.44,0.08 a 29.24,29.24 0 0 1 4.87,-4.1 16.22,16.22 0 0 1 5.75,-2.47 12.19,12.19 0 0 1 5,0.08 11,11 0 0 1 2.21,0.72 c 0,0 0.12,0 0.12,0.08 a 9.43,9.43 0 0 0 -5.6,2.1 8.81,8.81 0 0 0 -2.12,2.13 14.66,14.66 0 0 0 -1.17,2.22 28.63,28.63 0 0 0 -1.77,4.78 26.2,26.2 0 0 0 -0.72,4.31 29.35,29.35 0 0 0 -0.09,3.38 c 0.05,1.37 0.21,2.74 0.37,4.15 0.28,2.29 0.68,4.59 1.08,6.88 0.21,1.25 0.37,2.54 0.61,3.83 a 6.29,6.29 0 0 0 2.82,4.27 c 0,0 0.08,0 0.12,0 z" /><path
                   id="path34"
                   class="cls-4"
                   d="m 394.88,0 h 1.81 A 15.15,15.15 0 0 1 401,0.85 c 1.09,0.36 1.33,1.08 0.68,2 a 6,6 0 0 1 -1.77,1.57 12.73,12.73 0 0 1 -2.78,1.41 2.07,2.07 0 0 1 -2.61,-1 3,3 0 0 1 -0.45,-1 c 0,-0.13 -0.08,-0.17 -0.2,-0.17 a 6.44,6.44 0 0 0 -5.92,1.74 10.73,10.73 0 0 0 -2.74,4.71 18.58,18.58 0 0 0 -0.84,4.91 23.34,23.34 0 0 0 0.24,4.43 4.29,4.29 0 0 1 0.12,0.77 0.77,0.77 0 0 1 -0.32,0.76 1.49,1.49 0 0 1 -0.93,0.16 c -0.76,-0.24 -1.53,-0.48 -2.29,-0.68 v -0.53 c 0,-0.8 0,-1.57 0,-2.37 A 26.87,26.87 0 0 1 383,8.5 a 13.7,13.7 0 0 1 4,-5.56 12.08,12.08 0 0 1 5.1,-2.5 13.71,13.71 0 0 1 2.78,-0.4 z" /><path
                   id="path36"
                   class="cls-5"
                   d="m 383.48,21.1 a 1.49,1.49 0 0 0 0.93,-0.16 0.76,0.76 0 0 0 0.32,-0.76 c 0,-0.25 -0.08,-0.53 -0.12,-0.77 0.16,0 0.28,0 0.44,0 0.57,0.32 1.17,0.6 1.77,0.93 a 6.7,6.7 0 0 1 2.78,3.54 c 0.08,0.24 0.16,0.44 0.24,0.68 -0.32,-0.28 -0.64,-0.56 -1,-0.8 a 16.85,16.85 0 0 0 -4.19,-2.22 10.72,10.72 0 0 1 -1.17,-0.44 z" /><path
                   id="path38"
                   class="cls-5"
                   d="m 381.19,19.89 v 0.53 c -0.53,-0.16 -1.05,-0.28 -1.57,-0.49 0.56,-0.04 1.08,-0.04 1.57,-0.04 z" /></g><g
                 id="g596"><path
                   id="path569"
                   class="cls-6"
                   d="m 144.25,73.18 a 25.76,25.76 0 0 1 -11.33,-2.45 19.22,19.22 0 0 1 -8.11,-7.35 23.35,23.35 0 0 1 -3,-12.09 q 0,-11.4 6.09,-17.24 6.09,-5.84 16.22,-5.92 a 34.9,34.9 0 0 1 7.19,0.77 27.56,27.56 0 0 1 6.42,1.94 v 10.82 a 46.17,46.17 0 0 0 -6.17,-2.28 17.86,17.86 0 0 0 -5.41,-0.85 q -5.58,0 -8.7,2.79 -3.12,2.79 -3.13,8.54 0,6.49 2.87,9.63 2.87,3.14 9.55,3.13 5,0 11.07,-3.38 V 70 a 26.18,26.18 0 0 1 -6.33,2.37 28.87,28.87 0 0 1 -7.27,0.84 z"
                   style="fill:#000000" /><path
                   id="path571"
                   class="cls-6"
                   d="m 185.91,73.35 q -10.82,0 -16.23,-5.75 -5.41,-5.75 -5.41,-17.07 0,-11.83 5.33,-17.24 5.33,-5.41 16.31,-5.41 10.91,0 16.4,5.58 5.49,5.58 5.49,17.07 0,11.16 -5.66,17 -5.66,5.84 -16.23,5.83 z m 0,-10.06 a 8.14,8.14 0 0 0 7,-3.21 q 2.37,-3.3 2.37,-9.55 0,-6.84 -2.37,-9.72 -2.37,-2.88 -7,-3 -4.91,0 -7.1,3 -2.19,3 -2.11,9.72 0,6.51 2.19,9.64 c 1.53,2.08 3.86,3.12 7,3.12 z"
                   style="fill:#000000" /><path
                   id="path573"
                   class="cls-6"
                   d="m 216.49,33.8 a 17.79,17.79 0 0 1 4.4,-2.45 44.69,44.69 0 0 1 7.11,-2.29 31.08,31.08 0 0 1 7.61,-1 q 7,0 9.72,2.11 v 9.22 a 46.75,46.75 0 0 0 -9.72,-0.77 41,41 0 0 0 -6.51,0.43 v 33 h -12.61 z"
                   style="fill:#000000" /><path
                   id="path575"
                   class="cls-6"
                   d="m 270.09,27.88 q 20,0 19.77,26.12 h -28.23 q 1.61,8.86 11.92,8.87 a 22.22,22.22 0 0 0 6.09,-0.84 65.19,65.19 0 0 0 6.42,-2.37 V 70.48 A 40.34,40.34 0 0 1 270.51,73.35 23.81,23.81 0 0 1 259.1,70.73 18.91,18.91 0 0 1 251.49,63 24.3,24.3 0 0 1 248.79,51.25 q 0,-11.16 5.49,-17.24 5.49,-6.08 15.81,-6.13 z m -0.51,9.64 q -6.76,0 -8,8.45 h 15.8 c -0.39,-3 -1.21,-5.21 -2.45,-6.51 a 6.82,6.82 0 0 0 -5.32,-1.94 z"
                   style="fill:#000000" /><path
                   id="path577"
                   class="cls-6"
                   d="m 323,8.19 h 9 l -31.1,72.17 h -9 z"
                   style="fill:#000000" /></g><g
                 id="g589"><path
                   id="path559"
                   class="cls-1"
                   d="m 0.09,33 a 41.54,41.54 0 0 1 10.05,-3.29 55.46,55.46 0 0 1 12.09,-1.53 q 9,0 13.61,3.55 4.61,3.55 4.56,11.62 V 72.08 H 27.81 v -26.2 q 0,-7.35 -8.28,-7.35 a 18.07,18.07 0 0 0 -3.81,0.42 11.64,11.64 0 0 0 -3,1 V 72.08 H 0.09 Z" /><path
                   id="path561"
                   class="cls-1"
                   d="m 54.8,39 h -6.25 v -9.68 h 6.33 v -1 Q 55,18.67 59.28,15 63.56,11.33 71.2,11.2 a 18.83,18.83 0 0 1 3,0.25 17.42,17.42 0 0 1 2.62,0.59 V 23.06 A 6.42,6.42 0 0 0 74.96,21.71 4.85,4.85 0 0 0 72.6,21.2 5.24,5.24 0 0 0 68.88,22.47 c -0.9,0.85 -1.35,2.28 -1.35,4.31 v 2.54 h 9.29 V 39 H 67.39 V 72.08 H 54.8 Z" /><path
                   id="path563"
                   class="cls-1"
                   d="m 86,41.83 h 25.78 v 8.7 H 86 Z" /><path
                   id="path67"
                   class="cls-7"
                   d="m 95.8,41.83 -8.67,8.7 h 24.61 v -8.7 z"
                   style="fill:url(#linear-gradient)" /></g></g><g
               id="text4743"
               class="cls-8"
               transform="matrix(0.88020573,0,0,0.88020573,26.163257,12.357234)"
               style="stroke:none"><g
                 aria-label="funcscan"
                 id="text3168"
                 style="font-weight:700;font-size:92.95px;font-family:MavenPro-Bold, 'Maven Pro';fill:#000000"
                 class="cls-9"><path
                   d="m 59.170443,155.69 v -36.4364 h -6.97125 v -10.5963 h 7.0642 v -1.1154 q 0,-4.55455 0.9295,-7.807796 0.9295,-3.25325 2.6026,-5.3911 1.6731,-2.230799 3.903899,-3.439149 2.2308,-1.20835 4.92635,-1.6731 2.69555,-0.5577 5.577,-0.5577 1.4872,0 3.25325,0.27885 1.76605,0.1859 2.88145,0.65065 v 12.269395 q -0.83655,-1.02245 -1.859,-1.58015 -1.02245,-0.557696 -2.7885,-0.557696 -1.20835,0 -2.2308,0.278846 -1.02245,0.27885 -1.76605,0.9295 -0.7436,0.65065 -1.20835,1.859 -0.3718,1.20835 -0.3718,3.06735 v 2.7885 h 10.2245 v 10.5963 H 73.019992 V 155.69 Z"
                   id="path382"
                   style="fill:#000000" /><path
                   d="m 114.38266,157.08425 q -6.5065,0 -11.5258,-2.0449 -5.019302,-2.0449 -7.807802,-6.22765 -2.7885,-4.2757 -2.7885,-11.06105 V 108.6573 h 13.849552 v 27.97795 q 0,4.4616 1.95195,6.6924 2.0449,2.13785 6.41355,2.13785 4.4616,0 6.41355,-2.13785 1.95195,-2.2308 1.95195,-6.6924 V 108.6573 h 13.013 v 29.09335 q 0,10.0386 -5.7629,14.6861 -5.7629,4.6475 -15.70855,4.6475 z"
                   id="path384"
                   style="fill:#000000" /><path
                   d="m 148.1235,112.65415 q 1.76605,-0.9295 4.6475,-1.859 2.88145,-1.02245 6.3206,-1.76605 3.43915,-0.7436 6.8783,-1.20835 3.5321,-0.46475 6.5065,-0.46475 6.3206,0 10.78219,1.6731 4.4616,1.58015 6.78535,5.2052 2.4167,3.62505 2.4167,9.8527 V 155.69 H 178.6111 v -28.8145 q 0,-1.76605 -0.5577,-3.25325 -0.46475,-1.4872 -1.4872,-2.50965 -1.02245,-1.1154 -2.7885,-1.6731 -1.76605,-0.65065 -4.2757,-0.65065 -2.13785,0 -4.2757,0.5577 -2.13785,0.46475 -3.25325,1.02245 V 155.69 H 148.1235 Z"
                   id="path386"
                   style="fill:#000000" /><path
                   d="m 226.75912,156.89835 q -5.0193,0 -9.4809,-1.4872 -4.4616,-1.4872 -7.90075,-4.4616 -3.43915,-2.9744 -5.3911,-7.52895 -1.95195,-4.55455 -1.95195,-10.5963 0,-6.41355 1.859,-11.154 1.859,-4.8334 5.11225,-7.9937 3.3462,-3.1603 7.8078,-4.74045 4.4616,-1.58015 9.8527,-1.58015 3.81095,0 7.8078,0.83655 4.0898,0.7436 7.15715,2.13785 v 11.8976 q -3.25325,-1.4872 -6.41355,-2.4167 -3.06735,-1.02245 -6.3206,-1.02245 -5.85585,0 -9.4809,2.9744 -3.5321,2.88145 -3.5321,9.4809 0,6.97125 3.1603,10.50335 3.1603,3.5321 10.50335,3.5321 3.43915,0 6.59945,-1.20835 3.25325,-1.20835 5.577,-2.50965 v 11.80465 q -3.25325,1.6731 -6.78535,2.6026 -3.5321,0.9295 -8.1796,0.9295 z"
                   id="path388"
                   style="fill:#000000" /><path
                   d="m 265.33327,157.08425 q -5.0193,0 -8.64435,-1.1154 -3.5321,-1.02245 -6.6924,-2.32375 v -12.17645 q 1.95195,1.3013 4.36865,2.69555 2.4167,1.3013 5.29815,2.13785 2.9744,0.83655 6.22765,0.83655 3.3462,0 4.6475,-1.1154 1.39425,-1.20835 1.39425,-2.88145 0,-1.58015 -1.39425,-2.50965 -1.39425,-1.02245 -3.62505,-1.6731 -2.2308,-0.65065 -4.74045,-1.20835 -2.2308,-0.46475 -4.4616,-1.39425 -2.2308,-1.02245 -3.99685,-2.69555 -1.76605,-1.6731 -2.88145,-4.0898 -1.02245,-2.50965 -1.02245,-6.04175 0,-4.55455 1.76605,-7.52895 1.76605,-3.06735 4.6475,-4.92635 2.88145,-1.859 6.22765,-2.6026 3.3462,-0.83655 6.5065,-0.7436 5.7629,0.1859 9.1091,1.3013 3.43915,1.02245 6.22765,2.69555 v 10.87515 q -3.1603,-1.76605 -6.3206,-3.25325 -3.06735,-1.58015 -7.0642,-1.58015 -3.62505,0 -5.2052,1.1154 -1.58015,1.1154 -1.58015,2.9744 0,1.76605 1.02245,2.7885 1.1154,1.02245 2.88145,1.6731 1.76605,0.5577 3.9039,1.1154 2.32375,0.5577 4.74045,1.39425 2.50965,0.7436 4.6475,2.2308 2.2308,1.39425 3.5321,3.99685 1.39425,2.50965 1.39425,6.6924 -0.093,5.66995 -3.06735,9.1091 -2.9744,3.3462 -7.71485,4.8334 -4.6475,1.39425 -10.13155,1.39425 z"
                   id="path390"
                   style="fill:#000000" /><path
                   d="m 318.22168,156.89835 q -5.0193,0 -9.4809,-1.4872 -4.4616,-1.4872 -7.90075,-4.4616 -3.43915,-2.9744 -5.3911,-7.52895 -1.95195,-4.55455 -1.95195,-10.5963 0,-6.41355 1.859,-11.154 1.859,-4.8334 5.11225,-7.9937 3.3462,-3.1603 7.8078,-4.74045 4.4616,-1.58015 9.8527,-1.58015 3.81095,0 7.8078,0.83655 4.0898,0.7436 7.15715,2.13785 v 11.8976 q -3.25325,-1.4872 -6.41355,-2.4167 -3.06735,-1.02245 -6.3206,-1.02245 -5.85585,0 -9.4809,2.9744 -3.5321,2.88145 -3.5321,9.4809 0,6.97125 3.1603,10.50335 3.1603,3.5321 10.50335,3.5321 3.43915,0 6.59945,-1.20835 3.25325,-1.20835 5.577,-2.50965 v 11.80465 q -3.25325,1.6731 -6.78535,2.6026 -3.5321,0.9295 -8.1796,0.9295 z"
                   id="path392"
                   style="fill:#000000" /><path
                   d="m 360.97856,157.08425 q -4.2757,0 -8.08665,-0.83655 -3.718,-0.7436 -6.59945,-2.50965 -2.7885,-1.859 -4.36865,-4.92635 -1.58015,-3.1603 -1.58015,-7.8078 0,-4.36865 1.76605,-7.6219 1.859,-3.25325 5.577,-5.0193 3.718,-1.76605 9.38795,-1.76605 3.1603,0 6.1347,0.65065 2.9744,0.65065 5.29815,1.76605 2.4167,1.1154 3.81095,2.4167 l 0.5577,6.6924 q -1.859,-1.1154 -4.4616,-1.76605 -2.6026,-0.65065 -5.577,-0.65065 -4.55455,0 -6.6924,1.39425 -2.0449,1.3013 -2.0449,4.18275 0,1.76605 1.02245,3.1603 1.02245,1.39425 2.69555,2.13785 1.76605,0.7436 3.62505,0.7436 4.74045,0 6.59945,-0.65065 1.95195,-0.65065 1.95195,-2.6026 v -17.2887 q 0,-4.2757 -2.7885,-6.1347 -2.69555,-1.95195 -7.71485,-1.95195 -4.0898,0 -8.27255,1.4872 -4.0898,1.39425 -6.6924,3.43915 v -12.2694 q 2.4167,-1.4872 7.436,-2.7885 5.11225,-1.3013 11.43285,-1.3013 2.2308,0 4.92635,0.3718 2.69555,0.3718 5.3911,1.39425 2.69555,0.9295 4.92635,2.7885 2.32375,1.859 3.718,4.74045 1.39425,2.88145 1.39425,7.15715 l -0.0929,22.21505 q 0,3.99685 -2.69555,6.5065 -2.69555,2.4167 -7.8078,3.5321 -5.0193,1.1154 -12.17645,1.1154 z"
                   id="path394"
                   style="fill:#000000" /><path
                   d="m 396.02058,112.65415 q 1.76605,-0.9295 4.6475,-1.859 2.88145,-1.02245 6.3206,-1.76605 3.43915,-0.7436 6.87829,-1.20835 3.5321,-0.46475 6.5065,-0.46475 6.3206,0 10.7822,1.6731 4.4616,1.58015 6.78535,5.2052 2.4167,3.62505 2.4167,9.8527 v 31.603 h -13.84955 v -28.8145 q 0,-1.76605 -0.5577,-3.25325 -0.46475,-1.4872 -1.4872,-2.50965 -1.02245,-1.1154 -2.7885,-1.6731 -1.76605,-0.65065 -4.2757,-0.65065 -2.13785,0 -4.2757,0.5577 -2.13784,0.46475 -3.25324,1.02245 v 35.321 h -13.84955 z"
                   id="path396"
                   style="fill:#000000" /></g></g></g></g></g><g
         id="g1209"
         transform="matrix(0.18092931,0,0,0.18092931,0.614327,87.680691)"><g
           id="Layer_2-7"
           data-name="Layer 2"><g
             id="Layer_3"
             data-name="Layer 3"><polygon
               class="cls-1"
               points="132.23,93.8 145.97,117.62 132.23,141.43 104.73,141.43 90.98,117.62 104.73,93.8 "
               id="polygon6"
               style="fill:none;stroke:#3d4ea1;stroke-width:2px;stroke-miterlimit:10" /><polygon
               class="cls-2"
               points="189.61,127.52 203.36,151.33 189.61,175.15 162.11,175.15 148.36,151.33 162.11,127.52 "
               id="polygon8"
               style="fill:#6266ae;stroke:#3d4ea1;stroke-width:2px;stroke-miterlimit:10" /><polygon
               class="cls-1"
               points="189.49,72.8 203.24,96.61 189.49,120.42 161.99,120.42 148.24,96.61 161.99,72.8 "
               id="polygon10"
               style="fill:none;stroke:#3d4ea1;stroke-width:2px;stroke-miterlimit:10" /><polygon
               class="cls-1"
               points="235.17,100.9 248.92,124.71 235.17,148.53 207.68,148.53 193.93,124.71 207.68,100.9 "
               id="polygon12"
               style="fill:none;stroke:#3d4ea1;stroke-width:2px;stroke-miterlimit:10" /><line
               class="cls-1"
               x1="151.92999"
               y1="138"
               x2="141.24001"
               y2="131.32001"
               id="line14"
               style="fill:none;stroke:#3d4ea1;stroke-width:2px;stroke-miterlimit:10" /><line
               class="cls-1"
               x1="156.08"
               y1="130.31"
               x2="147.02"
               y2="145.84"
               id="line16"
               style="fill:none;stroke:#3d4ea1;stroke-width:2px;stroke-miterlimit:10" /><line
               class="cls-1"
               x1="126.19"
               y1="88.830002"
               x2="109.42"
               y2="88.830002"
               id="line18"
               style="fill:none;stroke:#3d4ea1;stroke-width:2px;stroke-miterlimit:10" /><line
               class="cls-3"
               x1="208.39"
               y1="94.830002"
               x2="201.34"
               y2="82.830002"
               id="line20"
               style="fill:none;stroke:#3d4ea1;stroke-width:2px;stroke-linecap:square;stroke-linejoin:bevel" /><line
               class="cls-4"
               x1="223.42999"
               y1="95.169998"
               x2="207.89999"
               y2="95.169998"
               id="line22"
               style="fill:none;stroke:#3d4ea1;stroke-width:2px;stroke-linejoin:bevel" /><line
               class="cls-3"
               x1="206.66"
               y1="153.39999"
               x2="220.42999"
               y2="153.35001"
               id="line24"
               style="fill:none;stroke:#3d4ea1;stroke-width:2px;stroke-linecap:square;stroke-linejoin:bevel" /><line
               class="cls-4"
               x1="199.00999"
               y1="166.09"
               x2="206.61"
               y2="152.81"
               id="line26"
               style="fill:none;stroke:#3d4ea1;stroke-width:2px;stroke-linejoin:bevel" /><line
               class="cls-1"
               x1="117.81"
               y1="77.709999"
               x2="117.81"
               y2="88.830002"
               id="line28"
               style="fill:none;stroke:#3d4ea1;stroke-width:2px;stroke-miterlimit:10" /><circle
               class="cls-1"
               cx="118.48"
               cy="147.81"
               r="2.6900001"
               id="circle30"
               style="fill:none;stroke:#3d4ea1;stroke-width:2px;stroke-miterlimit:10" /><circle
               class="cls-1"
               cx="258.14001"
               cy="105.24"
               r="2.6900001"
               id="circle32"
               style="fill:none;stroke:#3d4ea1;stroke-width:2px;stroke-miterlimit:10" /><line
               class="cls-1"
               x1="250.78999"
               y1="119.34"
               x2="242.24001"
               y2="104.91"
               id="line34"
               style="fill:none;stroke:#3d4ea1;stroke-width:2px;stroke-miterlimit:10" /><line
               class="cls-1"
               x1="256.07999"
               y1="106.46"
               x2="246.50999"
               y2="112.13"
               id="line36"
               style="fill:none;stroke:#3d4ea1;stroke-width:2px;stroke-miterlimit:10" /></g><g
             id="Layer_4"
             data-name="Layer 4"><g
               aria-label="FUNCSCAN"
               transform="translate(61.45,221.43)"
               id="text39"
               class="cls-5"
               style="font-weight:700;font-size:45px;font-family:BerlinSansFBDemi-Bold, 'Berlin Sans FB Demi';fill:#6266ae;stroke:#6266ae;stroke-miterlimit:10"><path
                 d="m 24.719238,-23.664551 q 0,0.241699 -0.439453,0.241699 -1.647949,0 -5.009765,-0.285644 -3.339844,-0.285645 -5.009766,-0.285645 -2.109375,0 -2.460938,0.153809 -0.812988,0.373535 -0.812988,2.109375 0,2.087402 1.054688,2.373047 0.439453,0.109863 1.340332,0.109863 1.516113,0 4.526367,-0.153808 3.032226,-0.175782 4.54834,-0.175782 0.725097,0 0.725097,3.867188 0,3.361816 -0.241699,3.911133 -0.153808,0.395507 -0.593262,0.395507 0.285645,0 -1.384277,-0.153808 -2.351074,-0.219727 -7.119141,-0.219727 -1.538085,0 -1.735839,0.02197 -1.120606,0.175781 -1.120606,0.944824 0,3.1201173 0.263672,7.1850587 0.219727,3.66943361 0.219727,3.2739258 0,0.57128906 -1.384278,0.65917969 Q 10.458984,0.28564453 8.1298828,0.28564453 4.0209961,0.28564453 2.8344727,0 2.1972656,-0.15380859 2.1972656,-0.68115234 q 0,-2.43896486 0.1538086,-7.31689456 0.1757813,-4.8999021 0.1757813,-7.3388671 0,-2.900391 -0.2636719,-7.294922 -0.3955078,-6.789551 -0.4174805,-7.294922 l -0.021973,-0.263672 q -0.021973,-0.549316 0.6591797,-0.549316 1.6259765,0 4.8999023,0.06592 3.2958989,0.06592 4.9438479,0.06592 1.757813,0 5.273438,-0.263672 3.537597,-0.263672 5.29541,-0.263672 1.098633,0 1.230469,0.900879 0,0.944824 0.08789,2.834473 0.04395,0.483398 0.285645,1.867675 0.219726,1.208497 0.219726,1.867676 z"
                 id="path375" /><path
                 d="m 53.547363,-10.788574 q 0,5.6030271 -1.340332,7.6464842 -2.460937,3.73535152 -12.282715,3.73535152 -4.438476,0 -6.833496,-0.68115234 Q 29.267578,-1.1865234 28.125,-4.284668 q -0.571289,-1.5161132 -0.571289,-5.4052734 0,-0.9008786 0.06592,-2.6806636 0.06592,-1.779786 0.06592,-2.658692 0,-2.548828 -0.241699,-7.646484 -0.2417,-5.097656 -0.2417,-7.624512 0,-0.527344 0.461426,-0.527344 1.340332,0 4.042969,0.109864 2.724609,0.109863 4.064941,0.109863 0.549317,0 0.549317,0.483398 0,2.900391 -0.197754,8.701172 -0.175781,5.778809 -0.175781,8.679199 0,3.4497074 0.725097,4.6582035 0.966797,1.6479492 4.042969,1.6479492 4.504395,0 4.504395,-4.3725587 0,-3.186035 -0.153809,-9.558105 -0.153809,-6.372071 -0.153809,-9.558106 0,-0.681152 0.549317,-0.681152 1.296386,0 3.911133,-0.109863 2.614746,-0.109864 3.911132,-0.109864 0.637207,0 0.637207,0.527344 0,2.526856 -0.219726,7.624512 -0.197754,5.097656 -0.197754,7.646484 0,0.703125 0.02197,2.131348 0.02197,1.40625 0.02197,2.109375 z"
                 id="path377" /><path
                 d="m 87.275391,-30.146484 q 0,2.504882 -0.219727,7.536621 -0.197754,5.009765 -0.197754,7.536621 V -0.59326172 Q 86.85791,0 86.220703,0 85.693359,0 84.616699,0.04394531 83.562012,0.08789062 83.034668,0.08789062 82.463379,0.08789062 81.320801,0 q -1.142578,-0.08789062 -1.713867,-0.08789062 -0.395508,0 -0.944825,-0.72509766 -1.582031,-2.13134762 -7.11914,-9.44824172 -1.516114,-2.043458 -4.614258,-6.020508 -0.08789,-0.131836 -0.32959,-0.263672 -0.175781,0.153808 -0.175781,0.483398 0,2.548828 0.131836,7.6464847 0.153808,5.0976562 0.153808,7.64648433 Q 66.708984,0 66.115723,0 h -7.602539 q -0.637207,0 -0.637207,-0.68115234 0,-2.37304686 0.219726,-7.16308596 0.241699,-4.7900387 0.241699,-7.1850587 0,-2.526855 -0.219726,-7.558594 -0.197754,-5.031738 -0.197754,-7.536621 0,-0.483398 0.856933,-0.483398 1.274415,0 3.14209,-0.175781 0.439453,-0.04395 1.73584,-0.285645 1.098633,-0.197754 1.73584,-0.197754 0.263672,0 0.812988,0.74707 l 8.195801,11.228028 q 1.098633,1.516113 3.317871,4.438476 0.549317,0.681153 0.944824,0.681153 0.285645,0 0.285645,-1.713867 0,-2.307129 -0.263672,-6.94336 -0.241699,-4.63623 -0.241699,-6.965332 0,-0.812988 0.461426,-0.812988 1.318359,0 3.97705,-0.109863 2.658692,-0.109864 3.977051,-0.109864 0.417481,0 0.417481,0.681153 z"
                 id="path379" /><path
                 d="m 117.02637,-4.9658203 q 0,0.3515625 -0.46143,0.9228516 -4.04297,4.81201167 -10.74463,4.81201167 -6.855466,0 -11.118162,-4.68017577 -4.152832,-4.5263672 -4.152832,-11.4257812 0,-6.679688 4.064942,-11.337891 4.240722,-4.877929 10.788572,-4.877929 7.11914,0 11.16211,4.372558 0.43945,0.483399 0.43945,0.856934 0,0.41748 -1.53808,3.098144 -1.51611,2.680664 -1.91162,3.010254 -0.17578,0.175782 -0.43946,0.175782 -0.10986,0 -1.09863,-0.878907 -1.18652,-1.054687 -2.3291,-1.647949 -1.73584,-0.878906 -3.60352,-0.878906 -3.22998,0 -5.16357,2.416992 -1.779785,2.241211 -1.779785,5.537109 0,3.339844 1.779785,5.6030277 1.93359,2.4609375 5.16357,2.4609375 1.91163,0 3.62549,-0.834961 1.12061,-0.5493164 2.28516,-1.5380859 0.9668,-0.8349613 1.07666,-0.8349613 0.21973,0 0.43945,0.2417 0.35156,0.3955074 1.91162,2.7465816 1.60401,2.4389649 1.60401,2.6806641 z"
                 id="path381" /><path
                 d="m 134.38477,-10.107422 q 0,4.4604493 -3.75733,7.6464845 -3.2959,2.8125 -8.02002,3.581543 -0.17578,0.021973 -0.28564,0.021973 -0.50537,0 -2.24121,-3.0761718 -1.73584,-3.0981446 -1.73584,-3.7792969 0,-0.2416992 0.32959,-0.3076172 3.18603,-0.7250977 4.21875,-1.2304688 2.28515,-1.1425781 2.28515,-3.3837898 0,-1.428222 -1.49414,-3.186035 -2.59277,-2.988281 -2.8125,-3.317871 -1.51611,-2.285156 -1.51611,-5.053711 0,-4.020996 3.71338,-6.679687 3.03222,-2.197266 7.44873,-2.856446 0.2417,-0.02197 0.37353,-0.02197 0.32959,0 0.52735,0.527343 0.57129,1.604004 2.65869,5.800782 0.0659,0.131836 0.0659,0.219726 0,0.373535 -0.39551,0.373535 -0.17578,0 -0.59326,-0.06592 -0.41748,-0.06592 -0.63721,-0.06592 -1.58203,0 -2.76855,0.725097 -1.42823,0.834961 -1.42823,2.329102 0,1.340332 1.58203,3.295898 2.79053,3.515625 2.92237,3.691406 1.56006,2.416993 1.56006,4.812012 z"
                 id="path383" /><path
                 d="m 163.69629,-4.9658203 q 0,0.3515625 -0.46143,0.9228516 -4.04297,4.81201167 -10.74463,4.81201167 -6.85546,0 -11.11816,-4.68017577 -4.15283,-4.5263672 -4.15283,-11.4257812 0,-6.679688 4.06494,-11.337891 4.24072,-4.877929 10.78857,-4.877929 7.11914,0 11.16211,4.372558 0.43946,0.483399 0.43946,0.856934 0,0.41748 -1.53809,3.098144 -1.51611,2.680664 -1.91162,3.010254 -0.17578,0.175782 -0.43945,0.175782 -0.10987,0 -1.09864,-0.878907 -1.18652,-1.054687 -2.3291,-1.647949 -1.73584,-0.878906 -3.60351,-0.878906 -3.22998,0 -5.16358,2.416992 -1.77978,2.241211 -1.77978,5.537109 0,3.339844 1.77978,5.6030277 1.9336,2.4609375 5.16358,2.4609375 1.91162,0 3.62548,-0.834961 1.12061,-0.5493164 2.28516,-1.5380859 0.9668,-0.8349613 1.07666,-0.8349613 0.21973,0 0.43945,0.2417 0.35157,0.3955074 1.91163,2.7465816 1.604,2.4389649 1.604,2.6806641 z"
                 id="path385" /><path
                 d="m 195.05127,-0.54931641 q 0,0.39550782 -0.54932,0.54931641 -0.65918,0.17578125 -4.08691,0.17578125 -3.14209,0 -4.04297,-0.17578125 -0.74707,-0.15380859 -0.94482,-0.98876953 -0.74707,-3.16406247 -1.16455,-3.38378907 -0.35157,-0.1538086 -5.88868,-0.1538086 -3.73535,0 -3.97705,0.1977539 -0.37353,0.3515625 -0.83496,2.3510742 Q 173.14453,-0.15380859 172.55127,0 q -0.74707,0.17578125 -5.00977,0.17578125 -3.36181,0 -3.36181,-0.63720703 0,-0.57128902 4.96582,-14.04052722 5.3833,-14.567871 5.84472,-16.018067 0.26368,-0.83496 0.61524,-0.83496 0.59326,0 1.82373,0.109863 1.25244,0.109863 1.86767,0.109863 0.59327,0 1.73584,-0.06592 1.16456,-0.08789 1.73584,-0.08789 0.41749,0 0.76905,0.725097 1.07666,2.307129 6.28418,15.820313 5.22949,13.6010739 5.22949,14.19433559 z M 179.47266,-20.566406 q -0.46143,0.966797 -1.56006,4.196777 -1.18653,3.427734 -1.18653,4.020996 0,0.395508 1.31836,0.439453 0.68116,0.04395 2.24121,0.04395 1.4502,0 1.60401,-0.351563 0.0439,-0.109863 0.0439,-0.307617 0,-0.725098 -1.01074,-3.999023 -0.98877,-3.164063 -1.45019,-4.042969 z"
                 id="path387" /><path
                 d="m 226.69189,-30.146484 q 0,2.504882 -0.21972,7.536621 -0.19776,5.009765 -0.19776,7.536621 V -0.59326172 Q 226.27441,0 225.63721,0 q -0.52735,0 -1.60401,0.04394531 -1.05468,0.04394531 -1.58203,0.04394531 -0.57129,0 -1.71387,-0.08789062 -1.14257,-0.08789062 -1.71386,-0.08789062 -0.39551,0 -0.94483,-0.72509766 -1.58203,-2.13134762 -7.11914,-9.44824172 -1.51611,-2.043458 -4.61426,-6.020508 -0.0879,-0.131836 -0.32959,-0.263672 -0.17578,0.153808 -0.17578,0.483398 0,2.548828 0.13184,7.6464847 0.15381,5.0976562 0.15381,7.64648433 Q 206.12549,0 205.53223,0 h -7.60254 q -0.63721,0 -0.63721,-0.68115234 0,-2.37304686 0.21973,-7.16308596 0.2417,-4.7900387 0.2417,-7.1850587 0,-2.526855 -0.21973,-7.558594 -0.19775,-5.031738 -0.19775,-7.536621 0,-0.483398 0.85693,-0.483398 1.27441,0 3.14209,-0.175781 0.43945,-0.04395 1.73584,-0.285645 1.09863,-0.197754 1.73584,-0.197754 0.26367,0 0.81299,0.74707 l 8.1958,11.228028 q 1.09863,1.516113 3.31787,4.438476 0.54932,0.681153 0.94482,0.681153 0.28565,0 0.28565,-1.713867 0,-2.307129 -0.26367,-6.94336 -0.2417,-4.63623 -0.2417,-6.965332 0,-0.812988 0.46142,-0.812988 1.31836,0 3.97705,-0.109863 2.65869,-0.109864 3.97705,-0.109864 0.41748,0 0.41748,0.681153 z"
                 id="path389" /></g></g><g
             id="Layer_2-2-5"
             data-name="Layer 2"><ellipse
               class="cls-6"
               cx="173.11"
               cy="168.44"
               rx="171.61"
               ry="166.73"
               id="ellipse42"
               style="fill:none;stroke:#3d4ea1;stroke-width:3px;stroke-linecap:round;stroke-miterlimit:10;stroke-dasharray:0, 11.94" /><ellipse
               class="cls-6"
               cx="173.11"
               cy="168.44"
               rx="166.73"
               ry="171.61"
               transform="rotate(-79.08,173.12002,168.44456)"
               id="ellipse44"
               style="fill:none;stroke:#3d4ea1;stroke-width:3px;stroke-linecap:round;stroke-miterlimit:10;stroke-dasharray:0, 11.94" /><ellipse
               class="cls-7"
               cx="172.61"
               cy="168.11"
               rx="157.7"
               ry="166.10001"
               transform="rotate(-87.03,172.59969,168.11258)"
               id="ellipse46"
               style="fill:none;stroke:#3d4ea1;stroke-width:3px;stroke-linecap:round;stroke-miterlimit:10;stroke-dasharray:0, 11.97" /><ellipse
               class="cls-7"
               cx="173.11"
               cy="168.44"
               rx="157.7"
               ry="166.10001"
               transform="rotate(-77.26,173.11395,168.44458)"
               id="ellipse48"
               style="fill:none;stroke:#3d4ea1;stroke-width:3px;stroke-linecap:round;stroke-miterlimit:10;stroke-dasharray:0, 11.97" /><ellipse
               class="cls-8"
               cx="172.81"
               cy="168.95"
               rx="166.10001"
               ry="162.21001"
               transform="rotate(-7.16,172.68242,168.85821)"
               id="ellipse50"
               style="fill:none;stroke:#3d4ea1;stroke-width:3px;stroke-linecap:round;stroke-miterlimit:10;stroke-dasharray:0, 11.99" /><ellipse
               class="cls-9"
               cx="172.83"
               cy="169.46001"
               rx="160.53999"
               ry="155.98"
               id="ellipse52"
               style="fill:none;stroke:#3d4ea1;stroke-width:3px;stroke-linecap:round;stroke-miterlimit:10;stroke-dasharray:0, 22.1" /><ellipse
               class="cls-9"
               cx="172.83"
               cy="169.46001"
               rx="155.98"
               ry="160.53999"
               transform="rotate(-70.9,172.82342,169.46155)"
               id="ellipse54"
               style="fill:none;stroke:#3d4ea1;stroke-width:3px;stroke-linecap:round;stroke-miterlimit:10;stroke-dasharray:0, 22.1" /><ellipse
               class="cls-10"
               cx="172.37"
               cy="169.14999"
               rx="147.53"
               ry="155.39"
               transform="rotate(-87.03,172.35965,169.15638)"
               id="ellipse56"
               style="fill:none;stroke:#3d4ea1;stroke-width:3px;stroke-linecap:round;stroke-miterlimit:10;stroke-dasharray:0, 22.14" /><ellipse
               class="cls-10"
               cx="172.83"
               cy="169.46001"
               rx="147.53"
               ry="155.39"
               transform="rotate(-77.26,172.8343,169.46164)"
               id="ellipse58"
               style="fill:none;stroke:#3d4ea1;stroke-width:3px;stroke-linecap:round;stroke-miterlimit:10;stroke-dasharray:0, 22.14" /><ellipse
               class="cls-11"
               cx="172.56"
               cy="169.92999"
               rx="155.39"
               ry="151.74001"
               transform="rotate(-7.16,172.46259,169.80722)"
               id="ellipse60"
               style="fill:none;stroke:#3d4ea1;stroke-width:3px;stroke-linecap:round;stroke-miterlimit:10;stroke-dasharray:0, 21.93" /><ellipse
               class="cls-12"
               cx="176.72"
               cy="167.3"
               rx="151.17"
               ry="142.42999"
               id="ellipse62"
               style="fill:none;stroke:#3d4ea1;stroke-width:3px;stroke-linecap:round;stroke-miterlimit:10;stroke-dasharray:0, 31.81" /><ellipse
               class="cls-13"
               cx="176.72"
               cy="167.3"
               rx="142.50999"
               ry="151.09"
               transform="matrix(0.09,-1,1,0.09,-6.13,327.88)"
               id="ellipse64"
               style="fill:none;stroke:#3d4ea1;stroke-width:3px;stroke-linecap:round;stroke-miterlimit:10;stroke-dasharray:0, 31.81" /><ellipse
               class="cls-14"
               cx="176.28"
               cy="167.02"
               rx="134.72"
               ry="146.31"
               transform="matrix(0.03,-1,1,0.03,3.61,337.77)"
               id="ellipse66"
               style="fill:none;stroke:#3d4ea1;stroke-width:3px;stroke-linecap:round;stroke-miterlimit:10;stroke-dasharray:0, 31.55" /><ellipse
               class="cls-15"
               cx="176.72"
               cy="167.3"
               rx="134.84"
               ry="146.17999"
               transform="rotate(-81.97,176.73552,167.2974)"
               id="ellipse68"
               style="fill:none;stroke:#3d4ea1;stroke-width:3px;stroke-linecap:round;stroke-miterlimit:10;stroke-dasharray:0, 31.54" /><ellipse
               class="cls-16"
               cx="176.46001"
               cy="167.73"
               rx="146.28999"
               ry="138.59"
               transform="rotate(-3.12,176.22742,167.58512)"
               id="ellipse70"
               style="fill:none;stroke:#3d4ea1;stroke-width:3px;stroke-linecap:round;stroke-miterlimit:10;stroke-dasharray:0, 31.97" /><ellipse
               class="cls-17"
               cx="169.3"
               cy="167.60001"
               rx="154.28999"
               ry="153.02"
               transform="rotate(-61.09,169.28776,167.60501)"
               id="ellipse72"
               style="fill:none;stroke:#3d4ea1;stroke-width:3px;stroke-linecap:round;stroke-miterlimit:10;stroke-dasharray:0, 32.18" /><ellipse
               class="cls-18"
               cx="169.3"
               cy="167.60001"
               rx="153.24001"
               ry="154.08"
               transform="rotate(-23.02,169.29587,167.60234)"
               id="ellipse74"
               style="fill:none;stroke:#3d4ea1;stroke-width:3px;stroke-linecap:round;stroke-miterlimit:10;stroke-dasharray:0, 32.18" /><ellipse
               class="cls-19"
               cx="168.82001"
               cy="167.36"
               rx="148.53"
               ry="145.53"
               transform="rotate(-10.42,168.85461,167.39064)"
               id="ellipse76"
               style="fill:none;stroke:#3d4ea1;stroke-width:3px;stroke-linecap:round;stroke-miterlimit:10;stroke-dasharray:0, 31.86" /><ellipse
               class="cls-20"
               cx="169.3"
               cy="171.60001"
               rx="145.47"
               ry="148.59"
               transform="matrix(0.25,-0.97,0.97,0.25,-39.42,292.22)"
               id="ellipse78"
               style="fill:none;stroke:#3d4ea1;stroke-width:3px;stroke-linecap:round;stroke-miterlimit:10;stroke-dasharray:0, 31.86" /><ellipse
               class="cls-21"
               cx="169.09"
               cy="168.10001"
               rx="151.10001"
               ry="147.13"
               transform="rotate(-66.88,169.0966,168.10052)"
               id="ellipse80"
               style="fill:none;stroke:#3d4ea1;stroke-width:3px;stroke-linecap:round;stroke-miterlimit:10;stroke-dasharray:0, 32.31" /><ellipse
               class="cls-22"
               cx="176.24001"
               cy="168.63"
               rx="136.12"
               ry="128.37"
               transform="rotate(-7.16,176.15389,168.51379)"
               id="ellipse82"
               style="fill:none;stroke:#3d4ea1;stroke-width:3px;stroke-linecap:round;stroke-miterlimit:10;stroke-dasharray:0, 39.58" /><ellipse
               class="cls-23"
               cx="175"
               cy="166.61"
               rx="133.91"
               ry="136.08"
               transform="rotate(-82.25,175.00197,166.61466)"
               id="ellipse84"
               style="fill:none;stroke:#3d4ea1;stroke-width:3px;stroke-linecap:round;stroke-miterlimit:10;stroke-dasharray:0, 40.39" /><ellipse
               class="cls-24"
               cx="173.17999"
               cy="169.17"
               rx="166.73"
               ry="168.86"
               transform="rotate(-82.25,173.18675,169.16755)"
               id="ellipse86"
               style="fill:none;stroke:#3d4ea1;stroke-width:3px;stroke-linecap:round;stroke-miterlimit:10;stroke-dasharray:0, 11.98" /></g></g></g></g></g></svg>
