<svg xmlns="http://www.w3.org/2000/svg" xmlns:xlink="http://www.w3.org/1999/xlink" viewBox="0 0 473.74 175.86"><defs><style>.cls-1{fill:#25af63;}.cls-2{fill:#eddd86;}.cls-3{fill:#a0918f;}.cls-4{fill:#3f2c2a;}.cls-5{fill:#3c6f36;}.cls-6,.cls-9{fill:#010101;}.cls-7{fill:url(#linear-gradient);}.cls-8,.cls-9{isolation:isolate;}.cls-9{font-size:92.95px;font-family:MavenPro-Bold, Maven Pro;font-weight:700;}.cls-10,.cls-11,.cls-12,.cls-13,.cls-14,.cls-15,.cls-17,.cls-18,.cls-19{fill:none;}.cls-10,.cls-11,.cls-12,.cls-13,.cls-14,.cls-15,.cls-16,.cls-17,.cls-18{stroke:#3d4da1;}.cls-10,.cls-11,.cls-12,.cls-13,.cls-14{stroke-linecap:round;}.cls-10,.cls-11,.cls-12,.cls-13,.cls-14,.cls-15,.cls-16,.cls-19,.cls-20{stroke-miterlimit:10;}.cls-10{stroke-dasharray:0 3;}.cls-11{stroke-dasharray:0 7;}.cls-12{stroke-dasharray:0 9;}.cls-13{stroke-dasharray:0 2;}.cls-14{stroke-dasharray:0 4;}.cls-15,.cls-16,.cls-17,.cls-18,.cls-19{stroke-width:0.5px;}.cls-16,.cls-20{fill:#6265ae;}.cls-17{stroke-linecap:square;}.cls-17,.cls-18{stroke-linejoin:bevel;}.cls-19{stroke:#658e9c;}.cls-20{font-size:7.34px;stroke:#6265ae;font-family:MyriadPro-Regular, Myriad Pro;letter-spacing:0em;}</style><linearGradient id="linear-gradient" x1="-428.16" y1="319.59" x2="-427.16" y2="319.59" gradientTransform="matrix(15.28, 11.94, 11.94, -15.28, 2820.37, 10034.6)" gradientUnits="userSpaceOnUse"><stop offset="0" stop-color="#10552c"/><stop offset="0.21" stop-color="#10552c"/><stop offset="0.58" stop-color="#25af64"/><stop offset="0.85" stop-color="#25af64"/><stop offset="1" stop-color="#25af64"/></linearGradient></defs><g id="Layer_2" data-name="Layer 2"><g id="Layer_5" data-name="Layer 5"><g id="layer4"><g id="g856"><g id="g821"><g id="g551"><path id="path24" class="cls-1" d="M411.39,40.87v1.45s0,0-.08,0l-.73-.6a26,26,0,0,0-5.27-3.54,4.58,4.58,0,0,0-1-.45s-.08-.08-.12-.08A20.37,20.37,0,0,0,402,37a12.19,12.19,0,0,0-5-.08,16.53,16.53,0,0,0-5.84,2.58,33.66,33.66,0,0,0-4.87,4.1c-.28.28-.28.28-.44-.08a31.37,31.37,0,0,0-2.78-4.75,10.82,10.82,0,0,0-3-2.9,4.88,4.88,0,0,0-4-.68,10.91,10.91,0,0,0-4.47,2.57,27,27,0,0,0-2.25,2c-.69.6-1.33,1.21-2,1.81-.12.12-.2.12-.32,0a8.58,8.58,0,0,0-2.25-1.81,4.65,4.65,0,0,0-3.87-.33,13.48,13.48,0,0,0-3.1,1.62c-.4.24-.77.52-1.17.72v-.08a.51.51,0,0,0,0-.24,46.21,46.21,0,0,1,.49-5.36,24.77,24.77,0,0,1,2.09-7,14.54,14.54,0,0,1,3.26-4.43,15.08,15.08,0,0,1,6.28-3.35,34.42,34.42,0,0,1,7.74-1.17l3.1-.12c.52.21,1,.33,1.57.49.76.24,1.53.48,2.29.68l1.17.44a14.07,14.07,0,0,1,4.19,2.22c.32.24.64.52,1,.81-.09-.25-.17-.45-.25-.69a6.7,6.7,0,0,0-2.78-3.54,19.75,19.75,0,0,0-1.77-.93.24.24,0,0,0,.16,0,42.48,42.48,0,0,1,5.52-.56,31.41,31.41,0,0,1,4.75.12,21.92,21.92,0,0,1,5.4,1.21,14.61,14.61,0,0,1,6.52,4.63,17,17,0,0,1,3.06,6.4,31.55,31.55,0,0,1,.93,7c0,.84,0,1.73,0,2.61Z"/><path id="path26" class="cls-2" d="M411.39,38.22h0v2.65h0Z"/><path id="path28" class="cls-3" d="M396.69,0V0h-1.81V0Z"/><path id="path30" class="cls-1" d="M397.86,75.87a28.61,28.61,0,0,0,2.94-1.45c1.13-.68,2.17-1.41,3.22-2.17.89-.65,1.73-1.33,2.58-2.06L408.05,69c.08-.08.08,0,.12,0,.16.65.28,1.33.44,2,.2.92.32,1.85.44,2.78a17.31,17.31,0,0,1,.08,3.22,13,13,0,0,1-.8,3.9,11.1,11.1,0,0,1-1.09,2.18,10.36,10.36,0,0,1-2,2.37,15.72,15.72,0,0,1-3.1,2.18,22.33,22.33,0,0,1-4.75,1.93,38.24,38.24,0,0,1-4.8,1.09,7.43,7.43,0,0,1-1.33.16,9.22,9.22,0,0,1-2.73-.56c-1.33-.53-2.5-1.33-3.83-1.94a6.28,6.28,0,0,0-2.21-.6,3.23,3.23,0,0,0-2.58,1l-1.57,1.57A5.8,5.8,0,0,1,375.15,92a8.72,8.72,0,0,1-2.5,0,22.79,22.79,0,0,1-3.38-.77,14.8,14.8,0,0,1-4.47-2.29,12.55,12.55,0,0,1-3.14-3.55,15.18,15.18,0,0,1-1.7-4.47,18.86,18.86,0,0,1-.32-2.09,18.58,18.58,0,0,1-.12-3,37,37,0,0,1,.36-4.19c.16.16.33.28.45.4a19.47,19.47,0,0,0,2.94,2.18,15.65,15.65,0,0,0,3.78,1.61,12.63,12.63,0,0,0,2.74.44,14.72,14.72,0,0,0,2.3,0,12.42,12.42,0,0,0,2.69-.36.83.83,0,0,0,.33,0c.8-.16,1.61-.36,2.41-.6s1.81-.57,2.7-.89,1.73-.68,2.58-1a.48.48,0,0,1,.6.08,20,20,0,0,0,4.59,2.7,12.64,12.64,0,0,0,5.72.93,23.56,23.56,0,0,0,4.15-1.17Z"/><path id="path32-3" class="cls-2" d="M397.86,75.87a14.73,14.73,0,0,1-4.11,1A12.66,12.66,0,0,1,388,76a17.48,17.48,0,0,1-4.59-2.7.48.48,0,0,0-.6-.08c-.85.36-1.69.73-2.58,1s-1.77.64-2.7.88-1.61.41-2.41.61a1.05,1.05,0,0,1-.33,0c.29-.32.57-.65.85-1a11,11,0,0,0,2.38-4.47c.64-2.25,1.28-4.55,1.85-6.84.4-1.7.72-3.39,1-5.12a69.58,69.58,0,0,0,.33-7.13,28.27,28.27,0,0,0-2.38-9.94,6.32,6.32,0,0,0-4.31-3.71,4.5,4.5,0,0,0-2.62.12c-.08,0-.12.08-.2,0a10.66,10.66,0,0,1,4.47-2.57,5,5,0,0,1,4,.68,11.42,11.42,0,0,1,3,2.9,31.37,31.37,0,0,1,2.78,4.75c.16.36.16.36.44.08a29.24,29.24,0,0,1,4.87-4.1A16.22,16.22,0,0,1,397,36.89a12.19,12.19,0,0,1,5,.08,11,11,0,0,1,2.21.72s.12,0,.12.08a9.43,9.43,0,0,0-5.6,2.1A8.81,8.81,0,0,0,396.61,42a14.66,14.66,0,0,0-1.17,2.22A28.63,28.63,0,0,0,393.67,49a26.2,26.2,0,0,0-.72,4.31,29.35,29.35,0,0,0-.09,3.38c.05,1.37.21,2.74.37,4.15.28,2.29.68,4.59,1.08,6.88.21,1.25.37,2.54.61,3.83a6.29,6.29,0,0,0,2.82,4.27s.08,0,.12,0Z"/><path id="path34" class="cls-4" d="M394.88,0h1.81A15.15,15.15,0,0,1,401,.85c1.09.36,1.33,1.08.68,2a6,6,0,0,1-1.77,1.57,12.73,12.73,0,0,1-2.78,1.41,2.07,2.07,0,0,1-2.61-1,3,3,0,0,1-.45-1c0-.13-.08-.17-.2-.17a6.44,6.44,0,0,0-5.92,1.74,10.73,10.73,0,0,0-2.74,4.71,18.58,18.58,0,0,0-.84,4.91,23.34,23.34,0,0,0,.24,4.43,4.29,4.29,0,0,1,.12.77.77.77,0,0,1-.32.76,1.49,1.49,0,0,1-.93.16c-.76-.24-1.53-.48-2.29-.68v-.53c0-.8,0-1.57,0-2.37A26.87,26.87,0,0,1,383,8.5a13.7,13.7,0,0,1,4-5.56A12.08,12.08,0,0,1,392.1.44a13.71,13.71,0,0,1,2.78-.4Z"/><path id="path36" class="cls-5" d="M383.48,21.1a1.49,1.49,0,0,0,.93-.16.76.76,0,0,0,.32-.76c0-.25-.08-.53-.12-.77.16,0,.28,0,.44,0,.57.32,1.17.6,1.77.93a6.7,6.7,0,0,1,2.78,3.54c.08.24.16.44.24.68-.32-.28-.64-.56-1-.8a16.85,16.85,0,0,0-4.19-2.22A10.72,10.72,0,0,1,383.48,21.1Z"/><path id="path38" class="cls-5" d="M381.19,19.89v.53c-.53-.16-1.05-.28-1.57-.49C380.18,19.89,380.7,19.89,381.19,19.89Z"/></g><g id="g596"><path id="path569" class="cls-6" d="M144.25,73.18a25.76,25.76,0,0,1-11.33-2.45,19.22,19.22,0,0,1-8.11-7.35,23.35,23.35,0,0,1-3-12.09q0-11.4,6.09-17.24t16.22-5.92a34.9,34.9,0,0,1,7.19.77,27.56,27.56,0,0,1,6.42,1.94V41.66a46.17,46.17,0,0,0-6.17-2.28,17.86,17.86,0,0,0-5.41-.85q-5.58,0-8.7,2.79t-3.13,8.54q0,6.49,2.87,9.63t9.55,3.13q5,0,11.07-3.38V70a26.18,26.18,0,0,1-6.33,2.37,28.87,28.87,0,0,1-7.27.84Z"/><path id="path571" class="cls-6" d="M185.91,73.35q-10.82,0-16.23-5.75t-5.41-17.07q0-11.83,5.33-17.24t16.31-5.41q10.91,0,16.4,5.58t5.49,17.07q0,11.16-5.66,17t-16.23,5.83Zm0-10.06a8.14,8.14,0,0,0,7-3.21q2.37-3.3,2.37-9.55,0-6.84-2.37-9.72t-7-3q-4.91,0-7.1,3t-2.11,9.72q0,6.51,2.19,9.64c1.53,2.08,3.86,3.12,7,3.12Z"/><path id="path573" class="cls-6" d="M216.49,33.8a17.79,17.79,0,0,1,4.4-2.45A44.69,44.69,0,0,1,228,29.06a31.08,31.08,0,0,1,7.61-1q7,0,9.72,2.11v9.22a46.75,46.75,0,0,0-9.72-.77,41,41,0,0,0-6.51.43v33H216.49Z"/><path id="path575" class="cls-6" d="M270.09,27.88q20,0,19.77,26.12H261.63q1.61,8.86,11.92,8.87a22.22,22.22,0,0,0,6.09-.84,65.19,65.19,0,0,0,6.42-2.37V70.48a40.34,40.34,0,0,1-15.55,2.87,23.81,23.81,0,0,1-11.41-2.62A18.91,18.91,0,0,1,251.49,63a24.3,24.3,0,0,1-2.7-11.75q0-11.16,5.49-17.24T270.09,27.88Zm-.51,9.64q-6.76,0-8,8.45h15.8c-.39-3-1.21-5.21-2.45-6.51a6.82,6.82,0,0,0-5.32-1.94Z"/><path id="path577" class="cls-6" d="M323,8.19h9l-31.1,72.17h-9Z"/></g><g id="g589"><path id="path559" class="cls-1" d="M.09,33a41.54,41.54,0,0,1,10.05-3.29,55.46,55.46,0,0,1,12.09-1.53q9,0,13.61,3.55T40.4,43.35V72.08H27.81V45.88q0-7.35-8.28-7.35a18.07,18.07,0,0,0-3.81.42,11.64,11.64,0,0,0-3,1V72.08H.09Z"/><path id="path561" class="cls-1" d="M54.8,39H48.55V29.32h6.33v-1Q55,18.67,59.28,15t11.92-3.8a18.83,18.83,0,0,1,3,.25,17.42,17.42,0,0,1,2.62.59V23.06a6.42,6.42,0,0,0-1.86-1.35,4.85,4.85,0,0,0-2.36-.51,5.24,5.24,0,0,0-3.72,1.27c-.9.85-1.35,2.28-1.35,4.31v2.54h9.29V39H67.39V72.08H54.8Z"/><path id="path563" class="cls-1" d="M86,41.83h25.78v8.7H86Z"/><path id="path67" class="cls-7" d="M95.8,41.83l-8.67,8.7h24.61v-8.7Z"/></g></g><g id="text4743" class="cls-8"><text class="cls-9" transform="translate(76.77 155.69)">funcscan</text></g></g></g></g><g id="Layer_2-2" data-name="Layer 2"><circle class="cls-10" cx="36.29" cy="120.19" r="35.79"/><ellipse class="cls-11" cx="36.41" cy="120.01" rx="30.34" ry="29.5"/><circle class="cls-12" cx="36.33" cy="120.13" r="29.5"/><circle class="cls-10" cx="36.75" cy="120.08" r="31.45"/><ellipse class="cls-13" cx="36.18" cy="120.09" rx="32.02" ry="31.44"/><ellipse class="cls-14" cx="36.37" cy="120.03" rx="31.07" ry="30.7"/><circle class="cls-13" cx="36.29" cy="120.19" r="35.79"/><circle class="cls-13" cx="36.26" cy="120.16" r="34.95"/><ellipse class="cls-13" cx="36.41" cy="120.14" rx="34.15" ry="33.79"/><ellipse class="cls-13" cx="36.66" cy="120.21" rx="33.54" ry="33.21"/><circle class="cls-13" cx="36.75" cy="120.08" r="32.59"/><polygon class="cls-15" points="18.17 118.84 14.6 112.47 18.17 106.1 25.32 106.1 28.89 112.47 25.32 118.84 18.17 118.84"/><polygon class="cls-16" points="33.08 127.86 29.51 121.49 33.08 115.12 40.22 115.12 43.8 121.49 40.22 127.86 33.08 127.86"/><polygon class="cls-15" points="33.05 113.22 29.48 106.85 33.05 100.48 40.19 100.48 43.77 106.85 40.19 113.22 33.05 113.22"/><polygon class="cls-15" points="44.92 120.74 41.35 114.37 44.92 108 52.06 108 55.64 114.37 52.06 120.74 44.92 120.74"/><line class="cls-15" x1="30.43" y1="117.92" x2="27.66" y2="116.14"/><line class="cls-15" x1="31.51" y1="115.87" x2="29.16" y2="120.02"/><line class="cls-15" x1="23.75" y1="105.15" x2="19.39" y2="105.15"/><line class="cls-17" x1="44.88" y1="106.76" x2="43.04" y2="103.55"/><line class="cls-18" x1="48.78" y1="106.85" x2="44.75" y2="106.85"/><line class="cls-17" x1="44.92" y1="121.65" x2="48.49" y2="121.63"/><line class="cls-18" x1="42.93" y1="125.04" x2="44.9" y2="121.49"/><line class="cls-15" x1="21.57" y1="102.18" x2="21.57" y2="105.15"/><ellipse class="cls-15" cx="21.74" cy="120.55" rx="0.7" ry="0.72"/><ellipse class="cls-15" cx="58.03" cy="109.16" rx="0.7" ry="0.72"/><line class="cls-19" x1="56.12" y1="112.93" x2="53.9" y2="109.07"/><line class="cls-15" x1="57.5" y1="109.48" x2="55.01" y2="111"/><text class="cls-20" transform="translate(15.18 136.65) scale(0.97 1)">F U N C S C A N</text></g></g></svg>